<?xml version="1.0" encoding="utf-8"?>
<svg width="191px" height="261px" viewBox="0 0 191 261" version="1.1" xmlns:xlink="http://www.w3.org/1999/xlink" xmlns="http://www.w3.org/2000/svg">
  <desc>Created with Lunacy</desc>
  <defs>
    <path d="M84.2652 3.98955L53.0055 6.68702C10.8729 24.2186 0 41.7501 0 41.7501L0 41.7501C5.43644 113.226 48.928 160.426 48.928 160.426L48.928 160.426L180.364 68.7226L157.657 32.3104C157.657 32.3104 141.348 5.33857 137.271 1.29265L137.271 1.29265C136.329 0.358618 133.002 -0.000580523 128.434 7.0412e-07L128.434 7.0412e-07C113.215 0.000581932 84.2652 3.98955 84.2652 3.98955L84.2652 3.98955Z" transform="translate(0.318068 0.09997042)" id="path_1" />
    <clipPath id="mask_1">
      <use xlink:href="#path_1" />
    </clipPath>
  </defs>
  <g id="illustration" transform="translate(1.5 1.5)">
    <g id="Group-17" transform="translate(0 14.46932)">
      <path d="M32.616 49.3965L13.7715 53.6557C12.1097 54.0309 10.4549 53.0015 10.0759 51.3562L0.0781547 7.99605C-0.301418 6.35072 0.738307 4.71236 2.4007 4.33655L21.2446 0.0773797C22.9064 -0.298429 24.5612 0.730986 24.9408 2.37689L34.9385 45.7364C35.3175 47.3823 34.2778 49.0207 32.616 49.3965" transform="translate(86.34144 29.19374)" id="Fill-1" fill="#E4E4E4" stroke="none" />
      <path d="M29.5475 37.6385L9.04007 42.2735C8.78878 42.3303 8.53573 42.1726 8.47832 41.9238L0.01174 5.20296C-0.0456646 4.95416 0.113077 4.70362 0.364954 4.64678L20.8713 0.0118025C21.1231 -0.0456128 21.3768 0.112134 21.4336 0.361514L29.9008 37.0824C29.9576 37.3312 29.7994 37.5817 29.5475 37.6385" transform="translate(89.01917 35.41076)" id="Fill-3" fill="#3F3F3F" stroke="none" />
      <path d="M1.89372 0.735705C2.01322 1.24664 1.69164 1.757 1.17558 1.87531C0.660111 1.99362 0.144641 1.67523 0.0251454 1.16429C-0.0949357 0.653351 0.226647 0.143574 0.742703 0.0246833C1.25876 -0.0936269 1.77423 0.224767 1.89372 0.735705" transform="translate(97.97903 34.0891)" id="Fill-5" fill="#A8A8A8" stroke="none" />
      <path d="M1.33888 0.520226C1.42381 0.881537 1.19654 1.24227 0.831608 1.32578C0.466678 1.40987 0.102334 1.18485 0.0173989 0.822962C-0.0663651 0.462231 0.160325 0.1015 0.525255 0.017407C0.890184 -0.0661062 1.25453 0.158916 1.33888 0.520226" transform="translate(98.25986 34.36744)" id="Fill-7" fill="#C6E5E2" stroke="none" />
      <path d="M1.33888 0.520226C1.42381 0.881537 1.19654 1.24227 0.831608 1.32578C0.466678 1.40987 0.102334 1.18485 0.0173989 0.822962C-0.0663651 0.462231 0.160325 0.1015 0.525255 0.017407C0.890184 -0.0661062 1.25453 0.158916 1.33888 0.520226Z" transform="translate(98.25986 34.36744)" id="Stroke-9" fill="none" stroke="#606060" stroke-width="1" />
      <path d="M6.29693 3.11724C6.29693 4.83912 4.88759 6.23449 3.14846 6.23449C1.40934 6.23449 0 4.83912 0 3.11724C0 1.39537 1.40934 0 3.14846 0C4.88759 0 6.29693 1.39537 6.29693 3.11724" transform="translate(103.9754 65.03271)" id="Fill-11" fill="#EF4433" stroke="none" />
      <path d="M0 123.798C0 123.798 10.8729 106.305 53.0055 88.8121L53.0055 41.7148C53.0055 41.7148 35.3372 32.2952 53.0055 28.2582C48.928 8.0741 63.8784 0 63.8784 0L107.053 18.8392L107.053 53.8254C107.053 53.8254 112.214 65.5619 78.8287 57.8624C71.1102 56.082 84.2652 86.1206 84.2652 86.1206C84.2652 86.1206 133.193 79.3926 137.271 83.4296C141.348 87.4667 157.657 114.379 157.657 114.379L180.364 150.712L48.928 242.214C48.928 242.214 5.43644 195.117 0 123.798" transform="translate(0.318068 0.3133482)" id="Fill-13" fill="#FE915F" stroke="none" />
      <path d="M0 0C0 0 4.09329 9.84179 15.2034 6.94725" transform="translate(73.57041 40.74356)" id="Stroke-15" fill="none" stroke="#172C6C" stroke-width="3" />
    </g>
    <g id="Group-57" transform="translate(0 96.46932)">
      <g id="Group-20">
        <path d="M84.2652 3.98955L53.0055 6.68702C10.8729 24.2186 0 41.7501 0 41.7501L0 41.7501C5.43644 113.226 48.928 160.426 48.928 160.426L48.928 160.426L180.364 68.7226L157.657 32.3104C157.657 32.3104 141.348 5.33857 137.271 1.29265L137.271 1.29265C136.329 0.358618 133.002 -0.000580523 128.434 7.0412e-07L128.434 7.0412e-07C113.215 0.000581932 84.2652 3.98955 84.2652 3.98955L84.2652 3.98955Z" transform="translate(0.318068 0.09997042)" id="Clip-19" fill="none" stroke="none" />
        <g clip-path="url(#mask_1)">
          <path d="M0 23.2491L183.343 0L213.217 182.505L26.945 211.567L0 23.2491Z" transform="translate(-12.88673 -37.7799)" id="Fill-18" fill="#FFE600" stroke="none" />
        </g>
      </g>
      <g id="Group-23">
        <path d="M84.2652 3.98955L53.0055 6.68702C10.8729 24.2186 0 41.7501 0 41.7501L0 41.7501C5.43644 113.226 48.928 160.426 48.928 160.426L48.928 160.426L180.364 68.7226L157.657 32.3104C157.657 32.3104 141.348 5.33857 137.271 1.29265L137.271 1.29265C136.329 0.358618 133.002 -0.000580523 128.434 7.0412e-07L128.434 7.0412e-07C113.215 0.000581932 84.2652 3.98955 84.2652 3.98955L84.2652 3.98955Z" transform="translate(0.318068 0.09997042)" id="Clip-22" fill="none" stroke="none" />
        <g clip-path="url(#mask_1)">
          <path d="M0 25.0759L1.11294 32.7493L176.649 7.67336L175.535 0L0 25.0759Z" transform="translate(-8.180907 -32.81273)" id="Fill-21" fill="#172C6C" stroke="none" />
        </g>
      </g>
      <g id="Group-26">
        <path d="M84.2652 3.98955L53.0055 6.68702C10.8729 24.2186 0 41.7501 0 41.7501L0 41.7501C5.43644 113.226 48.928 160.426 48.928 160.426L48.928 160.426L180.364 68.7226L157.657 32.3104C157.657 32.3104 141.348 5.33857 137.271 1.29265L137.271 1.29265C136.329 0.358618 133.002 -0.000580523 128.434 7.0412e-07L128.434 7.0412e-07C113.215 0.000581932 84.2652 3.98955 84.2652 3.98955L84.2652 3.98955Z" transform="translate(0.318068 0.09997042)" id="Clip-25" fill="none" stroke="none" />
        <g clip-path="url(#mask_1)">
          <path d="M1.11353 32.7493L176.649 7.67336L175.536 0L0 25.0759L1.11353 32.7493Z" transform="translate(-5.954373 -17.466)" id="Fill-24" fill="#172C6C" stroke="none" />
        </g>
      </g>
      <g id="Group-29">
        <path d="M84.2652 3.98955L53.0055 6.68702C10.8729 24.2186 0 41.7501 0 41.7501L0 41.7501C5.43644 113.226 48.928 160.426 48.928 160.426L48.928 160.426L180.364 68.7226L157.657 32.3104C157.657 32.3104 141.348 5.33857 137.271 1.29265L137.271 1.29265C136.329 0.358618 133.002 -0.000580523 128.434 7.0412e-07L128.434 7.0412e-07C113.215 0.000581932 84.2652 3.98955 84.2652 3.98955L84.2652 3.98955Z" transform="translate(0.318068 0.09997042)" id="Clip-28" fill="none" stroke="none" />
        <g clip-path="url(#mask_1)">
          <path d="M1.11353 32.7493L176.65 7.67336L175.536 0L0 25.0759L1.11353 32.7493Z" transform="translate(-3.727721 -2.119097)" id="Fill-27" fill="#172C6C" stroke="none" />
        </g>
      </g>
      <g id="Group-32">
        <path d="M84.2652 3.98955L53.0055 6.68702C10.8729 24.2186 0 41.7501 0 41.7501L0 41.7501C5.43644 113.226 48.928 160.426 48.928 160.426L48.928 160.426L180.364 68.7226L157.657 32.3104C157.657 32.3104 141.348 5.33857 137.271 1.29265L137.271 1.29265C136.329 0.358618 133.002 -0.000580523 128.434 7.0412e-07L128.434 7.0412e-07C113.215 0.000581932 84.2652 3.98955 84.2652 3.98955L84.2652 3.98955Z" transform="translate(0.318068 0.09997042)" id="Clip-31" fill="none" stroke="none" />
        <g clip-path="url(#mask_1)">
          <path d="M1.11353 32.7493L176.649 7.67336L175.536 0L0 25.0759L1.11353 32.7493Z" transform="translate(-1.50107 13.22775)" id="Fill-30" fill="#172C6C" stroke="none" />
        </g>
      </g>
      <g id="Group-35">
        <path d="M84.2652 3.98955L53.0055 6.68702C10.8729 24.2186 0 41.7501 0 41.7501L0 41.7501C5.43644 113.226 48.928 160.426 48.928 160.426L48.928 160.426L180.364 68.7226L157.657 32.3104C157.657 32.3104 141.348 5.33857 137.271 1.29265L137.271 1.29265C136.329 0.358618 133.002 -0.000580523 128.434 7.0412e-07L128.434 7.0412e-07C113.215 0.000581932 84.2652 3.98955 84.2652 3.98955L84.2652 3.98955Z" transform="translate(0.318068 0.09997042)" id="Clip-34" fill="none" stroke="none" />
        <g clip-path="url(#mask_1)">
          <path d="M1.11353 32.7493L176.65 7.67278L175.536 0L0 25.0759L1.11353 32.7493Z" transform="translate(0.725523 28.57465)" id="Fill-33" fill="#172C6C" stroke="none" />
        </g>
      </g>
      <g id="Group-38">
        <path d="M84.2652 3.98955L53.0055 6.68702C10.8729 24.2186 0 41.7501 0 41.7501L0 41.7501C5.43644 113.226 48.928 160.426 48.928 160.426L48.928 160.426L180.364 68.7226L157.657 32.3104C157.657 32.3104 141.348 5.33857 137.271 1.29265L137.271 1.29265C136.329 0.358618 133.002 -0.000580523 128.434 7.0412e-07L128.434 7.0412e-07C113.215 0.000581932 84.2652 3.98955 84.2652 3.98955L84.2652 3.98955Z" transform="translate(0.318068 0.09997042)" id="Clip-37" fill="none" stroke="none" />
        <g clip-path="url(#mask_1)">
          <path d="M1.11294 32.7498L176.648 7.67336L175.535 0L0 25.0765L1.11294 32.7498Z" transform="translate(2.95276 43.92097)" id="Fill-36" fill="#172C6C" stroke="none" />
        </g>
      </g>
      <g id="Group-41">
        <path d="M84.2652 3.98955L53.0055 6.68702C10.8729 24.2186 0 41.7501 0 41.7501L0 41.7501C5.43644 113.226 48.928 160.426 48.928 160.426L48.928 160.426L180.364 68.7226L157.657 32.3104C157.657 32.3104 141.348 5.33857 137.271 1.29265L137.271 1.29265C136.329 0.358618 133.002 -0.000580523 128.434 7.0412e-07L128.434 7.0412e-07C113.215 0.000581932 84.2652 3.98955 84.2652 3.98955L84.2652 3.98955Z" transform="translate(0.318068 0.09997042)" id="Clip-40" fill="none" stroke="none" />
        <g clip-path="url(#mask_1)">
          <path d="M1.11294 32.7498L176.649 7.67336L175.535 0L0 25.0765L1.11294 32.7498Z" transform="translate(5.179412 59.26788)" id="Fill-39" fill="#172C6C" stroke="none" />
        </g>
      </g>
      <g id="Group-44">
        <path d="M84.2652 3.98955L53.0055 6.68702C10.8729 24.2186 0 41.7501 0 41.7501L0 41.7501C5.43644 113.226 48.928 160.426 48.928 160.426L48.928 160.426L180.364 68.7226L157.657 32.3104C157.657 32.3104 141.348 5.33857 137.271 1.29265L137.271 1.29265C136.329 0.358618 133.002 -0.000580523 128.434 7.0412e-07L128.434 7.0412e-07C113.215 0.000581932 84.2652 3.98955 84.2652 3.98955L84.2652 3.98955Z" transform="translate(0.318068 0.09997042)" id="Clip-43" fill="none" stroke="none" />
        <g clip-path="url(#mask_1)">
          <path d="M1.11353 32.7493L176.649 7.67336L175.536 0L0 25.0759L1.11353 32.7493Z" transform="translate(7.405712 74.61484)" id="Fill-42" fill="#172C6C" stroke="none" />
        </g>
      </g>
      <g id="Group-47">
        <path d="M84.2652 3.98955L53.0055 6.68702C10.8729 24.2186 0 41.7501 0 41.7501L0 41.7501C5.43644 113.226 48.928 160.426 48.928 160.426L48.928 160.426L180.364 68.7226L157.657 32.3104C157.657 32.3104 141.348 5.33857 137.271 1.29265L137.271 1.29265C136.329 0.358618 133.002 -0.000580523 128.434 7.0412e-07L128.434 7.0412e-07C113.215 0.000581932 84.2652 3.98955 84.2652 3.98955L84.2652 3.98955Z" transform="translate(0.318068 0.09997042)" id="Clip-46" fill="none" stroke="none" />
        <g clip-path="url(#mask_1)">
          <path d="M1.11353 32.7498L176.649 7.67336L175.536 0L0 25.0765L1.11353 32.7498Z" transform="translate(9.520248 89.18918)" id="Fill-45" fill="#172C6C" stroke="none" />
        </g>
      </g>
      <g id="Group-50">
        <path d="M84.2652 3.98955L53.0055 6.68702C10.8729 24.2186 0 41.7501 0 41.7501L0 41.7501C5.43644 113.226 48.928 160.426 48.928 160.426L48.928 160.426L180.364 68.7226L157.657 32.3104C157.657 32.3104 141.348 5.33857 137.271 1.29265L137.271 1.29265C136.329 0.358618 133.002 -0.000580523 128.434 7.0412e-07L128.434 7.0412e-07C113.215 0.000581932 84.2652 3.98955 84.2652 3.98955L84.2652 3.98955Z" transform="translate(0.318068 0.09997042)" id="Clip-49" fill="none" stroke="none" />
        <g clip-path="url(#mask_1)">
          <path d="M1.11294 32.7498L176.649 7.67336L175.535 0L0 25.0765L1.11294 32.7498Z" transform="translate(11.74749 104.5361)" id="Fill-48" fill="#172C6C" stroke="none" />
        </g>
      </g>
      <g id="Group-53">
        <path d="M84.2652 3.98955L53.0055 6.68702C10.8729 24.2186 0 41.7501 0 41.7501L0 41.7501C5.43644 113.226 48.928 160.426 48.928 160.426L48.928 160.426L180.364 68.7226L157.657 32.3104C157.657 32.3104 141.348 5.33857 137.271 1.29265L137.271 1.29265C136.329 0.358618 133.002 -0.000580523 128.434 7.0412e-07L128.434 7.0412e-07C113.215 0.000581932 84.2652 3.98955 84.2652 3.98955L84.2652 3.98955Z" transform="translate(0.318068 0.09997042)" id="Clip-52" fill="none" stroke="none" />
        <g clip-path="url(#mask_1)">
          <path d="M1.11294 32.7493L176.648 7.67336L175.535 0L0 25.0759L1.11294 32.7493Z" transform="translate(13.97408 119.883)" id="Fill-51" fill="#172C6C" stroke="none" />
        </g>
      </g>
      <g id="Group-56">
        <path d="M84.2652 3.98955L53.0055 6.68702C10.8729 24.2186 0 41.7501 0 41.7501L0 41.7501C5.43644 113.226 48.928 160.426 48.928 160.426L48.928 160.426L180.364 68.7226L157.657 32.3104C157.657 32.3104 141.348 5.33857 137.271 1.29265L137.271 1.29265C136.329 0.358618 133.002 -0.000580523 128.434 7.0412e-07L128.434 7.0412e-07C113.215 0.000581932 84.2652 3.98955 84.2652 3.98955L84.2652 3.98955Z" transform="translate(0.318068 0.09997042)" id="Clip-55" fill="none" stroke="none" />
        <g clip-path="url(#mask_1)">
          <path d="M1.11353 32.7493L176.649 7.67337L175.536 0L0 25.0759L1.11353 32.7493Z" transform="translate(16.20044 135.2299)" id="Fill-54" fill="#172C6C" stroke="none" />
        </g>
      </g>
    </g>
    <g id="Group-72" transform="translate(0.3171997 0)">
      <path d="M48.7685 160.386C48.7685 160.386 5.41872 113.198 0 41.7401C0 41.7401 10.8374 24.2129 52.8321 6.68579L90.7637 59.1156L83.9905 3.98899C83.9905 3.98899 132.758 -2.75213 136.823 1.29219C140.887 5.3371 159.478 32.3022 159.478 32.3022L185.931 78.927" transform="translate(0 96.6096)" id="Fill-58" fill="#172C6C" stroke="none" />
      <path d="M0 94.7162L9.62887 54.2062L108.012 0L0 94.7162Z" transform="translate(48.72629 162.1719)" id="Fill-60" fill="#FE915F" stroke="none" />
      <path d="M17.5155 9.87838L0 0L18.8584 27.8297C18.8584 27.8297 11.677 8.71622 17.5155 9.87838" transform="translate(60.98715 62.22596)" id="Fill-62" fill="#E26E40" stroke="none" />
      <path d="M33.2795 12.2027L33.2795 21.2286L0 0L33.2795 12.2027Z" transform="translate(73.24802 20.9692)" id="Fill-64" fill="#E26E40" stroke="none" />
      <path d="M2.16282 42.4692C2.16282 42.4692 -10.0981 -1.69296 23.7653 0.0502838C57.6287 1.79353 91.492 20.9692 91.492 20.9692C91.492 20.9692 94.4113 29.6854 80.9827 27.9422C83.902 32.5908 81.5666 39.5638 73.3926 38.9827C65.2187 38.4016 16.7591 20.9692 16.7591 20.9692L2.16282 42.4692Z" transform="translate(49.48273 0)" id="Fill-66" fill="#172C6C" stroke="none" />
      <path d="M138.659 0L114.435 11.6071L120.273 76.1071L0 80.532L92.5164 11.6071L138.659 0Z" transform="translate(48.72638 176.3562)" id="Fill-68" fill="#172C6C" stroke="none" />
      <path d="M74.5262 94.9858L60.5617 128.236L0 0L58.0529 73.7316L74.5262 94.9858Z" transform="translate(112.8589 81.37038)" id="Fill-70" fill="#FE915F" stroke="none" />
    </g>
  </g>
</svg>