<?xml version="1.0" encoding="utf-8"?>
<svg width="233px" height="181px" viewBox="0 0 233 181" version="1.1" xmlns:xlink="http://www.w3.org/1999/xlink" xmlns="http://www.w3.org/2000/svg">
  <desc>Created with Lunacy</desc>
  <defs>
    <path d="M0 0L138 0L138 138L0 138L0 0Z" transform="translate(0.3601 0.7995)" id="path_1" />
    <clipPath id="mask_1">
      <use xlink:href="#path_1" />
    </clipPath>
  </defs>
  <g id="force/check" transform="translate(0 15.99976)">
    <path d="M0 68.4517L64.2597 131.46L198.331 0" transform="translate(18.49206 15.41209)" id="check" fill="none" stroke="#C9B717" stroke-opacity="0.2784314" stroke-width="30" stroke-linecap="round" stroke-linejoin="round" />
  </g>
  <g id="force/liberte" transform="translate(55.99994 0)">
    <g id="picto_liberte">
      <g id="Group-3" transform="translate(0 0.201)">
        <path d="M0 0L138 0L138 138L0 138L0 0Z" transform="translate(0.3601 0.7995)" id="Clip-2" fill="none" stroke="none" />
        <g clip-path="url(#mask_1)">
          <path d="M138 69C138 107.107 107.107 138 69 138C30.893 138 0 107.107 0 69C0 30.893 30.893 0 69 0C107.107 0 138 30.893 138 69" transform="translate(0.3601 0.7995)" id="Fill-1" fill="#162761" stroke="none" />
        </g>
      </g>
    </g>
    <g id="Group-5" transform="translate(23 15)">
      <path d="M2.00297 39C1.19576 39 0.388545 38.4463 0.120216 37.6141C-0.285062 36.5057 0.388545 35.3972 1.33048 34.9822L8.46291 32.6266C11.4234 29.9947 15.5942 29.025 19.3631 30.1334L22.1889 30.9645C23.9369 31.5193 25.9566 30.9645 27.3016 29.5786C28.6477 28.1939 29.1855 26.1157 28.6477 24.175L26.7627 17.9415C25.4178 13.5088 26.4944 8.7975 29.7233 5.61081L34.5688 0.623296C35.376 -0.207765 36.5874 -0.207765 37.3946 0.623296C38.2018 1.45436 38.2018 2.70152 37.3946 3.53373L32.5502 8.5201C30.3969 10.7382 29.7233 13.9237 30.5316 16.833L32.4144 22.929C33.4921 26.2544 32.5502 29.9947 30.1274 32.4879C27.8405 34.8435 24.3411 35.8133 21.1111 34.8435L18.2853 34.0125C15.5942 33.1814 12.7684 34.0125 10.7498 35.952C10.4804 36.2294 10.3457 36.367 9.94262 36.367L2.67547 38.8613C2.40714 38.8613 2.27242 39 2.00297 39" transform="translate(0 68)" id="Fill-3" fill="#FDE300" stroke="none" />
      <path d="M70 0L0 73L70 53.3016L70 0Z" transform="translate(33 0)" id="Fill-1" fill="#F43E3E" stroke="none" />
      <path d="M18.8889 0L0 73L70 0L18.8889 0Z" transform="translate(33 0)" id="Fill-2" fill="#FFFFFF" stroke="none" />
    </g>
  </g>
</svg>