<svg id="stamp" xmlns="http://www.w3.org/2000/svg" xmlns:xlink="http://www.w3.org/1999/xlink" viewBox="0 0 136 137"><defs><style>.cls-1{fill:#fff;}.cls-2{fill:none;stroke:#162761;}.cls-3{mask:url(#mask);}.cls-4{fill:#162761;}.cls-5{fill:#ff0b0b;}</style><mask id="mask" x="-35.1" y="-36.02" width="206.82" height="206.28" maskUnits="userSpaceOnUse"><g id="mask-2"><polygon id="path-1" class="cls-1" points="3.56 170.25 171.72 131.43 133.06 -36.02 -35.1 2.8 3.56 170.25"/></g></mask></defs><title>Plan de travail 1</title><g id="DESKTOP"><g id="Home"><g id="push-header"><g id="stamp-2" data-name="stamp"><g id="Group-33"><path id="Stroke-24" class="cls-2" d="M133.34,53.21A67.25,67.25,0,1,1,52.7,2.87,67.22,67.22,0,0,1,133.34,53.21Z"/><path id="Stroke-26" class="cls-2" d="M108.34,59A41.6,41.6,0,1,1,58.46,27.85,41.57,41.57,0,0,1,108.34,59Z"/><g class="cls-3"><polygon id="Fill-28" class="cls-4" points="71.65 129.98 78.81 128.33 75.67 114.73 68.51 116.39 71.65 129.98"/></g><g class="cls-3"><polygon id="Fill-30" class="cls-1" points="78.81 128.33 85.97 126.67 82.83 113.08 75.67 114.73 78.81 128.33"/></g><g class="cls-3"><polygon id="Fill-31" class="cls-5" points="85.97 126.67 93.13 125.02 90 111.43 82.83 113.08 85.97 126.67"/></g><g class="cls-3"><path id="Fill-32" class="cls-4" d="M68.16,45.63a2,2,0,0,1,1.49-2.41h0a2,2,0,0,1,2.42,1.49l4.84,20v0L68.55,47.25Zm-6.55-.57a2,2,0,0,1,1.1-2.26,1.77,1.77,0,0,1,.42-.15,2,2,0,0,1,1.12.06,2,2,0,0,1,1.14,1l9.68,20.19L72,61.45a.57.57,0,0,0-.23-.12L69,60.5l-7.21-15a3.52,3.52,0,0,1-.15-.42ZM58.47,73.39a3.19,3.19,0,0,0,1.49-.5,3.25,3.25,0,0,0,1.41-3.47l-.17-.77,1.9-1.9a1.57,1.57,0,0,1,1.66-.37l3.84,1.37,3.11,2.78L71.5,75A1.25,1.25,0,0,1,71,76l-4.33,3-.17.1c-.94.57-1.24.72-1.82.41l-4.24-2.65Zm21.11,5.67a46.06,46.06,0,0,0,1.66,8.71,8.64,8.64,0,0,1,.5,1.85c.1.8-4.39,3.19-9.82,4-3.13.5-4.42.06-4.5-.34-.64-3.24-5.36-7.53-5.53-7.68l-5.92-6-1.88-3.5a.56.56,0,0,0-.05-.08,1.9,1.9,0,0,1-.35-1.44,1.92,1.92,0,0,1,.76-1.28A2,2,0,0,1,55.9,73a1.91,1.91,0,0,1,1.24.74l2.2,3.89a.64.64,0,0,0,.22.24L64,80.63c1.31.7,2.22.15,3.18-.43l4.56-3.12a2.55,2.55,0,0,0,1.1-2l.23-4.82a.67.67,0,0,0-.22-.53l-3.44-3.07a.61.61,0,0,0-.22-.13l-4-1.42a2.92,2.92,0,0,0-3,.68L60,68a.68.68,0,0,0-.18.62l.26,1.13a1.93,1.93,0,0,1-.83,2,2.44,2.44,0,0,1-2.75-.3l-.85-3.67a1.83,1.83,0,0,1,.5-1.72l5.67-5.6a1.27,1.27,0,0,1,1.26-.32l8.18,2.4,6.44,5.19,1.22,5.3a21.6,21.6,0,0,1,.55,4.24c0,.55,0,1.15.11,1.77Zm-.74-12L73.37,44.39a3.29,3.29,0,0,0-1.51-2.06,3.37,3.37,0,0,0-2.5-.41h0A3.35,3.35,0,0,0,67,44l-.41-.84a3.34,3.34,0,0,0-6.27,2.19,3,3,0,0,0,.24.69l6.69,14-3.8-1.11a2.6,2.6,0,0,0-2.57.65l-5.66,5.6a3.13,3.13,0,0,0-.86,3l.82,3.58a3.29,3.29,0,0,0-2.81,2.75,3.2,3.2,0,0,0,.57,2.38l1.9,3.55a.83.83,0,0,0,.11.15l6,6.1c1.28,1.15,4.69,4.64,5.15,7,.29,1.49,2.37,2,6,1.39.55-.08,1.16-.2,1.82-.35,4-.92,9.39-2.95,9.12-5.17a10,10,0,0,0-.57-2.15,46,46,0,0,1-1.59-8.4c-.06-.57-.09-1.13-.1-1.66a23.39,23.39,0,0,0-.58-4.49l-1.28-5.53a.62.62,0,0,0-.1-.22Z"/></g></g></g></g><path class="cls-4" d="M35.28,102.33a7.18,7.18,0,0,1,1.5,2,6.85,6.85,0,0,1,.66,2.49l-1.83.21a6.76,6.76,0,0,0-.45-1.92,4.53,4.53,0,0,0-1.11-1.57,2.46,2.46,0,0,0-1.32-.72,1.19,1.19,0,0,0-1.09.38l0,0a1.4,1.4,0,0,0-.3.46,1.22,1.22,0,0,0,0,.58,3.2,3.2,0,0,0,.29.81,11.18,11.18,0,0,0,.69,1.13,11.9,11.9,0,0,1,.83,1.45,4,4,0,0,1,.41,1.27,2.42,2.42,0,0,1-.11,1.16,3.13,3.13,0,0,1-.72,1.12l0,0a3.1,3.1,0,0,1-1.12.76,2.9,2.9,0,0,1-1.27.2,3.68,3.68,0,0,1-1.33-.34,4.8,4.8,0,0,1-1.28-.88,6.34,6.34,0,0,1-1.36-1.79,6.57,6.57,0,0,1-.62-2l1.79-.35a7,7,0,0,0,.51,1.66,4.13,4.13,0,0,0,.9,1.26,2.12,2.12,0,0,0,1.24.65,1.19,1.19,0,0,0,1-.36l0,0a1.39,1.39,0,0,0,.31-.49,1,1,0,0,0,0-.61,3.37,3.37,0,0,0-.33-.83c-.17-.33-.41-.72-.71-1.18a11.76,11.76,0,0,1-.79-1.44,3.81,3.81,0,0,1-.37-1.26,2.69,2.69,0,0,1,.13-1.13,3,3,0,0,1,.67-1l0,0a3.28,3.28,0,0,1,1.18-.82,3.15,3.15,0,0,1,1.32-.2,3.5,3.5,0,0,1,1.36.39A5.69,5.69,0,0,1,35.28,102.33Z"/><path class="cls-4" d="M20.36,99.18l1.88,3-1.55,1-4.81-7.71,1.55-1,1.88,3,8-5,1,1.68Z"/><path class="cls-4" d="M11.88,85.37l-.5-1.75,9.5-7.83.57,2-2.29,1.83,1.45,5.1,2.91.37L24.08,87Zm5.8-4.58L13.9,83.88l4.83.62Z"/><path class="cls-4" d="M9.43,72.09l.06-5a5.67,5.67,0,0,1,.32-1.87,3.69,3.69,0,0,1,.84-1.35,3.17,3.17,0,0,1,1.08-.67A3.68,3.68,0,0,1,13.08,63h0a3.7,3.7,0,0,1,1.24.22,3.57,3.57,0,0,1,1,.56,3.45,3.45,0,0,1,.71.85,4.22,4.22,0,0,1,.44,1.09l4.28-3,0,2.32-3.94,2.72v0l0,2.44,3.91,0,0,2ZM15,67.32a2.59,2.59,0,0,0-.48-1.69A1.67,1.67,0,0,0,13.19,65h0a1.66,1.66,0,0,0-1.4.59,2.68,2.68,0,0,0-.49,1.71l0,2.87,3.78,0Z"/><path class="cls-4" d="M13.23,53.8l-1,3.41L10.5,56.7,13,48l1.75.51-1,3.41,9,2.6-.55,1.91Z"/><path class="cls-4" d="M27.88,43.82a5.89,5.89,0,0,1-1.3,1.51,3.94,3.94,0,0,1-1.59.78,4,4,0,0,1-1.82,0,6.08,6.08,0,0,1-2-.84l-5.48-3.4,1-1.66,5.41,3.36a3.41,3.41,0,0,0,2.42.62,3.12,3.12,0,0,0,2.23-3.52,3.24,3.24,0,0,0-1.58-1.88l-5.48-3.4,1-1.66,5.4,3.35a6.57,6.57,0,0,1,1.68,1.45,4.26,4.26,0,0,1,.82,1.65,4,4,0,0,1,0,1.79A6,6,0,0,1,27.88,43.82Z"/><path class="cls-4" d="M25.61,28.09l3.26-3a5.37,5.37,0,0,1,1.49-1,3.81,3.81,0,0,1,1.5-.35,3.38,3.38,0,0,1,1.43.31,3.74,3.74,0,0,1,1.25.93l0,0a3.63,3.63,0,0,1,.86,1.46A3.45,3.45,0,0,1,35.51,28a4.23,4.23,0,0,1-.56,1.5,6.24,6.24,0,0,1-1.13,1.36l-1.65,1.5,2.43,2.66-1.44,1.32Zm7.06,1.44a2.6,2.6,0,0,0,.94-1.61,1.86,1.86,0,0,0-.5-1.51l0,0a1.81,1.81,0,0,0-1.5-.67,2.81,2.81,0,0,0-1.64.82l-1.7,1.55,2.73,3Z"/><path class="cls-4" d="M53,12l8.18-1.55.33,1.74L55.29,13.4l.58,3,5.55-1.06.33,1.75L56.2,18.18l.85,4.48L55.13,23Z"/><path class="cls-4" d="M68.05,10.12l5,.4a5.35,5.35,0,0,1,1.84.44,3.79,3.79,0,0,1,1.29.93,3.37,3.37,0,0,1,.6,1.12,3.57,3.57,0,0,1,.13,1.36v0a3.7,3.7,0,0,1-.3,1.22,3.25,3.25,0,0,1-1.52,1.58,4,4,0,0,1-1.11.37L76.63,22l-2.31-.19-2.44-4.11h0l-2.43-.19-.31,3.89-2-.16ZM72.43,16a2.64,2.64,0,0,0,1.72-.37,1.69,1.69,0,0,0,.74-1.32v0a1.66,1.66,0,0,0-.5-1.44,2.71,2.71,0,0,0-1.67-.61L69.86,12l-.31,3.77Z"/><path class="cls-4" d="M88.05,13.85l1.7.66.48,12.3-1.94-.76-.07-2.93L83.29,21.2l-2.06,2.09-1.88-.73Zm.13,7.39L88,16.36l-3.42,3.47Z"/><path class="cls-4" d="M100.2,20l1.42,1.14-.15,9.79,4.83-6.06L107.83,26l-7,8.75-1.28-1,.15-10.07-5,6.22L93.21,28.7Z"/><path class="cls-4" d="M103.89,41.56h2.25a5.54,5.54,0,0,1-.48-1.92,5.75,5.75,0,0,1,.2-1.9,5.59,5.59,0,0,1,.86-1.75,5.81,5.81,0,0,1,1.46-1.42l0,0a6,6,0,0,1,2.09-.92,5.44,5.44,0,0,1,2.2-.06,5.69,5.69,0,0,1,2.07.79,5.83,5.83,0,0,1,1.7,1.66,7.37,7.37,0,0,1,.69,1.23,5.33,5.33,0,0,1,.36,1.16,4.68,4.68,0,0,1,.1,1.11,6.71,6.71,0,0,1-.09,1.1l-1.92-.21a6,6,0,0,0,0-1.74,3.57,3.57,0,0,0-.66-1.63,3.47,3.47,0,0,0-1.09-1,3.64,3.64,0,0,0-1.37-.49,3.86,3.86,0,0,0-1.47.09,4.28,4.28,0,0,0-1.43.65l0,0a4.34,4.34,0,0,0-1.12,1.1,3.86,3.86,0,0,0-.61,1.36,3.54,3.54,0,0,0,0,1.45,3.92,3.92,0,0,0,1.91,2.62,6.66,6.66,0,0,0,1.7.6l-.33,1.76a7.35,7.35,0,0,1-1.12-.26,5,5,0,0,1-1-.43,5.37,5.37,0,0,1-1-.67,6.63,6.63,0,0,1-.89-1l-2.63.54Z"/><path class="cls-4" d="M122.94,49.82l.56,1.73-9.24,8.14-.63-2,2.23-1.91-1.62-5-2.93-.28-.61-1.92Zm-5.64,4.76L121,51.37l-4.85-.46Z"/><path class="cls-4" d="M125.63,62.61l.16,1.94-11.16,1-.16-2Z"/><path class="cls-4" d="M114.21,74.25a7.1,7.1,0,0,1,.73-2.41,6.53,6.53,0,0,1,1.6-2l1.26,1.34a7,7,0,0,0-1.27,1.51,4.54,4.54,0,0,0-.59,1.83,2.46,2.46,0,0,0,.21,1.48,1.2,1.2,0,0,0,1,.65h0a1.35,1.35,0,0,0,.54,0,1.25,1.25,0,0,0,.49-.34,3,3,0,0,0,.47-.72,10.18,10.18,0,0,0,.49-1.22,12.51,12.51,0,0,1,.66-1.53,4.39,4.39,0,0,1,.77-1.09,2.53,2.53,0,0,1,1-.61,3.17,3.17,0,0,1,1.33-.09h0a2.92,2.92,0,0,1,1.28.44,3,3,0,0,1,.93.89,3.87,3.87,0,0,1,.52,1.28,5,5,0,0,1,.06,1.55,6.49,6.49,0,0,1-.62,2.16A6.4,6.4,0,0,1,123.83,79l-1.35-1.22a7.11,7.11,0,0,0,1-1.41,4.26,4.26,0,0,0,.47-1.48,2.13,2.13,0,0,0-.23-1.38,1.16,1.16,0,0,0-.88-.58h0a1.55,1.55,0,0,0-.58,0,1,1,0,0,0-.49.35,3.7,3.7,0,0,0-.47.77c-.16.34-.33.76-.52,1.27a11.92,11.92,0,0,1-.67,1.5,4.24,4.24,0,0,1-.79,1,2.9,2.9,0,0,1-1,.57,3.06,3.06,0,0,1-1.23.09h0a3.13,3.13,0,0,1-1.36-.45,3,3,0,0,1-1-.93,3.72,3.72,0,0,1-.5-1.33A5.85,5.85,0,0,1,114.21,74.25Z"/><path class="cls-4" d="M123.31,86.23l-3,7.7-1.65-.65,2.33-5.89-2.68-1.06-2.06,5.22-1.66-.65,2.07-5.22-2.78-1.1-2.36,6-1.65-.65,3.07-7.78Z"/></g></g></svg>