<?xml version="1.0" encoding="utf-8"?>
<svg width="233px" height="182px" viewBox="0 0 233 182" version="1.1" xmlns:xlink="http://www.w3.org/1999/xlink" xmlns="http://www.w3.org/2000/svg">
  <desc>Created with Lunacy</desc>
  <defs>
    <filter filterUnits="userSpaceOnUse" color-interpolation-filters="sRGB" id="filter_1">
      <feFlood flood-opacity="0" result="BackgroundImageFix" />
      <feBlend mode="normal" in="SourceGraphic" in2="BackgroundImageFix" result="shape" />
      <feColorMatrix in="SourceAlpha" type="matrix" values="0 0 0 0 0 0 0 0 0 0 0 0 0 0 0 0 0 0 127 0" result="hardAlpha" />
      <feOffset dx="0" dy="1" />
      <feGaussianBlur stdDeviation="1" />
      <feComposite in2="hardAlpha" operator="arithmetic" k2="-1" k3="1" />
      <feColorMatrix type="matrix" values="0 0 0 0 0 0 0 0 0 0 0 0 0 0 0 0 0 0 0.5019608 0" />
      <feBlend mode="normal" in2="shape" result="effect0_innerShadow" />
    </filter>
    <path d="M53.2734 58L5.72798 58C2.57752 58 0 55.3984 0 52.2199L0 5.78005C0 2.60016 2.57752 0 5.72798 0L53.2734 0C56.4239 0 59 2.60016 59 5.78005L59 52.2199C59 55.3984 56.4239 58 53.2734 58" id="path_1" />
    <clipPath id="mask_1">
      <use xlink:href="#path_1" />
    </clipPath>
  </defs>
  <g id="force/check" transform="translate(0 17)">
    <path d="M0 68.4517L64.2597 131.46L198.331 0" transform="translate(18.49206 15.41209)" id="check" fill="none" stroke="#C9B717" stroke-opacity="0.2784314" stroke-width="30" stroke-linecap="round" stroke-linejoin="round" />
  </g>
  <g id="force/securite" transform="translate(50 0)">
    <g id="picto_securite" transform="translate(0 1)">
      <path d="M138 69C138 107.107 107.107 138 69 138C30.893 138 0 107.107 0 69C0 30.893 30.893 0 69 0C107.107 0 138 30.893 138 69" transform="translate(0 0.0004)" id="Fill-1" fill="#162761" stroke="none" />
      <g id="Group-15" transform="translate(40 20.794)">
        <g id="Oval" transform="translate(0 29.206)">
          <path d="M53.2734 58L5.72798 58C2.57752 58 0 55.3984 0 52.2199L0 5.78005C0 2.60016 2.57752 0 5.72798 0L53.2734 0C56.4239 0 59 2.60016 59 5.78005L59 52.2199C59 55.3984 56.4239 58 53.2734 58" id="Mask" fill="#FFFFFF" stroke="none" />
        </g>
        <g filter="url(#filter_1)">
          <path d="M13 6.73684C13 3.01642 10.0896 0 6.5 0C2.91038 0 0 3.01642 0 6.73684C0 9.17726 1.26425 11.296 3.1395 12.4766L0 32L13 32L9.8605 12.4766C11.7358 11.296 13 9.17726 13 6.73684" transform="translate(23 42.206)" id="Fill-12" fill="#F43E3E" stroke="none" />
        </g>
        <path d="M0 29L0 16.3127C0 7.34014 7.42443 0 16.5 0C25.5756 0 33 7.34014 33 16.3127L33 29" transform="translate(13 0.206)" id="Stroke-9" fill="none" stroke="#FDE300" stroke-width="6" />
      </g>
    </g>
  </g>
</svg>