<?xml version="1.0" encoding="utf-8"?>
<svg width="233px" height="181px" viewBox="0 0 233 181" version="1.1" xmlns:xlink="http://www.w3.org/1999/xlink" xmlns="http://www.w3.org/2000/svg">
  <desc>Created with Lunacy</desc>
  <defs>
    <filter filterUnits="userSpaceOnUse" color-interpolation-filters="sRGB" id="filter_1">
      <feFlood flood-opacity="0" result="BackgroundImageFix" />
      <feBlend mode="normal" in="SourceGraphic" in2="BackgroundImageFix" result="shape" />
      <feColorMatrix in="SourceAlpha" type="matrix" values="0 0 0 0 0 0 0 0 0 0 0 0 0 0 0 0 0 0 127 0" result="hardAlpha" />
      <feOffset dx="0" dy="2" />
      <feGaussianBlur stdDeviation="1.5" />
      <feComposite in2="hardAlpha" operator="arithmetic" k2="-1" k3="1" />
      <feColorMatrix type="matrix" values="0 0 0 0 0 0 0 0 0 0 0 0 0 0 0 0 0 0 0.5019608 0" />
      <feBlend mode="normal" in2="shape" result="effect0_innerShadow" />
    </filter>
  </defs>
  <g id="force/check" transform="translate(0 16)">
    <path d="M0 68.4517L64.2597 131.46L198.331 0" transform="translate(18.49206 15.41209)" id="check" fill="none" stroke="#C9B717" stroke-opacity="0.2784314" stroke-width="30" stroke-linecap="round" stroke-linejoin="round" />
  </g>
  <g id="Force/simplicite01" transform="translate(49 0)">
    <path d="M138 69C138 107.107 107.107 138 69 138C30.893 138 0 107.107 0 69C0 30.893 30.893 0 69 0C107.107 0 138 30.893 138 69" transform="translate(0.3601 1.0005)" id="Fill-1" fill="#162761" stroke="none" />
    <g id="Group-14" transform="translate(22 16)">
      <path d="M86 42.5C86 65.9721 66.7484 85 43.0003 85C19.2522 85 0 65.9721 0 42.5C0 19.0279 19.2522 0 43.0003 0C66.7484 0 86 19.0279 86 42.5" transform="translate(5 10)" id="Fill-1" fill="#FFFFFF" stroke="none" />
      <g filter="url(#filter_1)">
        <path d="M0 43L0 0C11.7159 0 22.3224 4.81277 30 12.5941L0 43Z" transform="translate(49 10)" id="Fill-3" fill="#F43E3E" stroke="none" />
      </g>
      <path d="M5 2.50034C5 3.88037 3.8809 5 2.5 5C1.1191 5 0 3.88037 0 2.50034C0 1.11963 1.1191 0 2.5 0C3.8809 0 5 1.11963 5 2.50034" transform="translate(46 83)" id="Fill-5" fill="#162761" stroke="none" />
      <path d="M5 2.5C5 3.8809 3.8809 5 2.5 5C1.1191 5 0 3.8809 0 2.5C0 1.1191 1.1191 0 2.5 0C3.8809 0 5 1.1191 5 2.5" transform="translate(46 15)" id="Fill-7" fill="#162761" stroke="none" />
      <path d="M5 2.5C5 3.88022 3.8809 5 2.5 5C1.1191 5 0 3.88022 0 2.5C0 1.1191 1.1191 0 2.5 0C3.8809 0 5 1.1191 5 2.5" transform="translate(81 50)" id="Fill-9" fill="#162761" stroke="none" />
      <path d="M1.5003 16L1.5003 16C0.675371 16 0 15.2796 0 14.4003L0 1.59968C0 0.719763 0.675371 0 1.5003 0C2.32522 0 3 0.719763 3 1.59968L3 14.4003C3 15.2796 2.32522 16 1.5003 16" transform="translate(47 37)" id="Fill-12" fill="#162761" stroke="none" />
      <path d="M1.2208 20.8082L0.192342 19.7797C-0.0641141 19.5239 -0.0641141 19.105 0.192342 18.8492L18.8499 0.191848C19.105 -0.0639492 19.5239 -0.0639492 19.7797 0.191848L20.8082 1.22095C21.0639 1.47675 21.0639 1.89497 20.8082 2.15076L2.15062 20.8082C1.89482 21.0639 1.4766 21.0639 1.2208 20.8082" transform="translate(47 33)" id="Fill-13" fill="#162761" stroke="none" />
      <g id="5" fill="#FDE300">
        <path d="M17.9883 35.0527Q24.1992 35.0527 27.876 38.5391Q31.5527 42.0254 31.5527 48.0898Q31.5527 55.2676 27.1289 59.1348Q22.7051 63.002 14.4727 63.002Q7.32422 63.002 2.92969 60.6875L2.92969 52.8652Q5.24414 54.0957 8.32031 54.8721Q11.3965 55.6484 14.1504 55.6484Q22.4414 55.6484 22.4414 48.8516Q22.4414 42.377 13.8574 42.377Q12.3047 42.377 10.4297 42.6846Q8.55469 42.9922 7.38281 43.3438L3.7793 41.4102L5.39063 19.584L28.623 19.584L28.623 27.2598L13.3301 27.2598L12.5391 35.668L13.5645 35.4629Q15.3516 35.0527 17.9883 35.0527Z" />
      </g>
    </g>
  </g>
</svg>