<svg xmlns:xlink="http://www.w3.org/1999/xlink" xmlns="http://www.w3.org/2000/svg" width="50px" height="40px" viewBox="0 0 50 40"><desc>Created with Lunacy</desc><defs><path d="M0 0L7.055 0L7.055 9.7335L0 9.7335L0 0Z" transform="translate(0.4938 0.2665)" id="path_1"></path><path d="M0 0L4.29314 0L4.29314 6.3583L0 6.3583L0 0Z" transform="translate(0 0.141)" id="path_2"></path><rect width="50" height="40" id="artboard_1"></rect><clipPath id="clip_1"><use xlink:href="#artboard_1" clip-rule="evenodd"></use></clipPath><clipPath id="mask_1"><use xlink:href="#path_1"></use></clipPath><clipPath id="mask_2"><use xlink:href="#path_2"></use></clipPath></defs><g id="logos/cartes/samsungPay" clip-path="url(#clip_1)"><use xlink:href="#artboard_1" stroke="none" fill="#FFFFFF"></use><g id="Group-23" transform="translate(4 10)"><g id="Group-3" transform="translate(9 9.8593)"><path d="M0 0L7.055 0L7.055 9.7335L0 9.7335L0 0Z" transform="translate(0.4938 0.2665)" id="Clip-2" fill="none" stroke="none"></path><g clip-path="url(#mask_1)"><path d="M0 0.157L0 9.734L1.518 9.734L1.518 6.414C1.688 6.71 2.16 6.981 2.497 7.089C2.839 7.209 3.201 7.266 3.576 7.266C4.092 7.266 4.485 7.175 4.905 6.996C5.326 6.817 5.709 6.55 6.045 6.197C6.364 5.871 6.613 5.479 6.786 5.033C6.965 4.589 7.055 4.127 7.055 3.656C7.055 2.633 6.693 1.769 6.01 1.058C5.269 0.288 4.358 0 3.505 0C3.161 0 2.822 0.056 2.496 0.163C2.17 0.274 1.756 0.517 1.543 0.861L1.543 0.157L0 0.157ZM2 1.947C2.403 1.535 2.893 1.36 3.456 1.36C4.059 1.36 4.56 1.596 4.907 1.964C5.31 2.393 5.51 2.994 5.51 3.672C5.51 4.29 5.312 4.866 4.896 5.29C4.532 5.657 4.055 5.897 3.467 5.897C2.888 5.897 2.389 5.745 1.985 5.315C1.584 4.886 1.429 4.252 1.429 3.601C1.429 2.99 1.589 2.377 2 1.947Z" transform="translate(0.4938 0.2665)" id="Fill-1" fill="#164193" fill-rule="evenodd" stroke="none"></path></g></g><path d="M1.685 9.577L2.988 6.557L0 0L1.626 0L3.749 4.923L5.707 0L7.343 0L3.281 9.577L1.685 9.577Z" transform="translate(25.4421 10.2823)" id="Fill-4" fill="#164193" stroke="none"></path><path d="M5.538 6.414L5.538 7.139L7.057 7.139L7.057 0.156L5.516 0.156L5.516 0.86C5.303 0.517 4.888 0.273 4.561 0.164C4.234 0.055 3.896 0 3.553 0C2.699 0 1.788 0.288 1.046 1.057C0.362 1.768 0 2.632 0 3.656C0 4.126 0.092 4.587 0.272 5.033C0.444 5.478 0.692 5.871 1.012 6.197C1.348 6.549 1.731 6.816 2.151 6.996C2.573 7.174 2.966 7.265 3.482 7.265C3.853 7.265 4.219 7.209 4.561 7.089C4.897 6.98 5.369 6.71 5.538 6.414ZM1.548 3.672C1.548 2.994 1.746 2.392 2.149 1.964C2.497 1.595 2.998 1.36 3.602 1.36C4.164 1.36 4.652 1.532 5.058 1.947C5.468 2.377 5.626 2.989 5.626 3.6C5.626 4.251 5.474 4.885 5.07 5.315C4.668 5.745 4.17 5.896 3.59 5.896C3.002 5.896 2.525 5.657 2.162 5.289C1.746 4.865 1.548 4.289 1.548 3.672Z" transform="translate(17.4556 10.1263)" id="Fill-6" fill="#164193" fill-rule="evenodd" stroke="none"></path><path d="M3.602 4.662L3.523 0L4.995 0L4.995 5.883L2.878 5.883L1.414 1.053L1.375 1.053L1.459 5.883L0 5.883L0 0L2.204 0L3.57 4.662L3.602 4.662Z" transform="translate(30.798 1.19)" id="Fill-8" fill="#164193" stroke="none"></path><path d="M2.415 0.548L1.604 5.937L0 5.937L1.1 0L3.745 0L4.843 5.937L3.244 5.937L2.451 0.548L2.415 0.548Z" transform="translate(5.2575 1.1892)" id="Fill-10" fill="#164193" stroke="none"></path><path d="M3.318 4.542L4.053 0L6.473 0L6.606 5.937L5.119 5.937L5.077 0.599L5.048 0.599L4.055 5.937L2.552 5.937L1.555 0.599L1.522 0.599L1.485 5.937L0 5.937L0.134 0L2.557 0L3.288 4.542L3.318 4.542Z" transform="translate(11.2808 1.1894)" id="Fill-12" fill="#164193" stroke="none"></path><path d="M2.08354 5.046C2.50154 5.046 2.62554 4.763 2.65654 4.62C2.66754 4.556 2.66754 4.469 2.66754 4.393L2.66754 0L4.17554 0L4.17554 4.256C4.17554 4.367 4.16454 4.59 4.15954 4.649C4.05754 5.758 3.17654 6.114 2.08354 6.114C0.992545 6.114 0.116545 5.758 0.0155449 4.649C0.00754494 4.59 -0.00245506 4.367 0.000544938 4.256L0.000544938 0L1.50354 0L1.50354 4.393C1.49854 4.469 1.50554 4.556 1.51554 4.62C1.54354 4.763 1.67254 5.046 2.08354 5.046" transform="translate(24.96935 1.1898)" id="Fill-14" fill="#164193" stroke="none"></path><g id="Group-18" transform="translate(0 0.8593)"><path d="M0 0L4.29314 0L4.29314 6.3583L0 6.3583L0 0Z" transform="translate(0 0.141)" id="Clip-17" fill="none" stroke="none"></path><g clip-path="url(#mask_2)"><path d="M2.757 4.451C2.813 4.596 2.797 4.78 2.769 4.891C2.721 5.089 2.588 5.292 2.187 5.292C1.817 5.292 1.594 5.077 1.594 4.752L1.59 4.176L0 4.176L0 4.635C0 5.961 1.04 6.359 2.153 6.359C3.233 6.359 4.116 5.993 4.256 5.004C4.329 4.489 4.276 4.154 4.252 4.028C4.002 2.782 1.746 2.416 1.577 1.72C1.549 1.597 1.553 1.475 1.57 1.409C1.613 1.214 1.743 1.007 2.112 1.007C2.464 1.007 2.668 1.225 2.668 1.543L2.668 1.914L4.15 1.914L4.15 1.497C4.15 0.202 2.986 0 2.144 0C1.09 0 0.226 0.351 0.068 1.321C0.028 1.583 0.022 1.82 0.08 2.118C0.34 3.335 2.45 3.683 2.757 4.451" transform="translate(0 0.1403)" id="Fill-16" fill="#164193" stroke="none"></path></g></g><path d="M2.73 4.411C2.79 4.552 2.765 4.733 2.742 4.845C2.696 5.039 2.56 5.237 2.17 5.237C1.801 5.237 1.579 5.026 1.579 4.704L1.579 4.133L0 4.133L0 4.59C0 5.904 1.032 6.294 2.139 6.294C3.198 6.294 4.074 5.933 4.215 4.952C4.286 4.445 4.234 4.112 4.207 3.984C3.959 2.755 1.729 2.391 1.564 1.698C1.537 1.583 1.544 1.458 1.557 1.394C1.597 1.206 1.726 0.999 2.094 0.999C2.442 0.999 2.643 1.21 2.643 1.526L2.643 1.892L4.107 1.892L4.107 1.481C4.107 0.201 2.957 0 2.128 0C1.081 0 0.224 0.342 0.072 1.306C0.024 1.564 0.018 1.798 0.084 2.097C0.338 3.303 2.427 3.647 2.73 4.411" transform="translate(19.338 1.0323)" id="Fill-19" fill="#164193" stroke="none"></path><path d="M2.103 5.147C2.531 5.147 2.682 4.879 2.709 4.717C2.719 4.65 2.723 4.565 2.722 4.49L2.722 3.631L2.116 3.631L2.116 2.76L4.218 2.76L4.218 4.355C4.218 4.467 4.213 4.549 4.197 4.748C4.098 5.823 3.16 6.214 2.105 6.214C1.055 6.214 0.121 5.823 0.024 4.748C0 4.549 0 4.467 0 4.355L0 1.858C0 1.751 0.013 1.564 0.028 1.468C0.158 0.352 1.055 0 2.105 0C3.16 0 4.086 0.348 4.192 1.468C4.213 1.651 4.204 1.858 4.204 1.858L4.207 2.051L2.709 2.051L2.709 1.72C2.709 1.72 2.709 1.577 2.689 1.492C2.664 1.365 2.547 1.064 2.093 1.064C1.667 1.064 1.539 1.349 1.504 1.492C1.486 1.572 1.482 1.678 1.482 1.775L1.482 4.49C1.482 4.565 1.486 4.65 1.493 4.717C1.522 4.879 1.671 5.147 2.103 5.147" transform="translate(37.34 1.0292)" id="Fill-21" fill="#164193" stroke="none"></path></g></g></svg>