<svg xmlns:xlink="http://www.w3.org/1999/xlink" xmlns="http://www.w3.org/2000/svg" width="50px" height="40px" viewBox="0 0 50 40"><desc>Created with Lunacy</desc><defs><path d="M0 0L12.8601 0L12.8601 15.6632L0 15.6632L0 0Z" transform="translate(2.915679E-05 0.1419718)" id="path_1"></path><path d="M0 0L30.8383 0L30.8383 17.8855L0 17.8855L0 0Z" transform="translate(0.1573478 0.1144756)" id="path_2"></path><rect width="50" height="40" id="artboard_1"></rect><clipPath id="clip_1"><use xlink:href="#artboard_1" clip-rule="evenodd"></use></clipPath><clipPath id="mask_1"><use xlink:href="#path_1"></use></clipPath><clipPath id="mask_2"><use xlink:href="#path_2"></use></clipPath></defs>
<style type="text/css">
	.st0{fill:#FFFFFF;}
	.st1{fill:#004598;}
	.st2{fill:#E61A36;}
	.st3{fill:#082749;}
</style>
<g id="Groupe_363" transform="translate(-443.648 -252.09)">
	<g id="Groupe_359" transform="translate(455.426 252.09)">
		<path id="Tracé_219" class="st1" d="M6.08,15.02c-0.78,0-1.41-0.63-1.41-1.4c0-0.43,0.2-0.84,0.54-1.11l9.69-7.66
			c2.15-1.7,5.27-1.34,6.97,0.81c0,0,0,0,0,0l2.89,3.65c0.48,0.61,0.38,1.49-0.23,1.98c-0.61,0.48-1.49,0.38-1.98-0.23l-2.89-3.65
			c-0.74-0.93-2.09-1.09-3.03-0.35l-9.68,7.66C6.71,14.92,6.4,15.02,6.08,15.02z"/>
	</g>
	<g id="Groupe_360" transform="translate(443.648 268.486)">
		<path id="Tracé_220" class="st2" d="M20.25,18.59c-0.2,0-0.39-0.01-0.59-0.03c-1.31-0.15-2.51-0.82-3.32-1.85L9.66,8.24
			c-1.7-2.15-1.34-5.27,0.81-6.97c0,0,0,0,0,0l3.32-2.63c0.61-0.49,1.49-0.39,1.98,0.22s0.39,1.49-0.22,1.98
			c0,0-0.01,0.01-0.01,0.01l-3.32,2.63c-0.93,0.74-1.09,2.09-0.36,3.02c0,0,0,0,0,0l6.69,8.46c0.35,0.45,0.87,0.74,1.44,0.8
			c0.57,0.07,1.14-0.09,1.59-0.45l4.57-3.65c0.6-0.5,1.49-0.41,1.98,0.19c0.5,0.6,0.41,1.49-0.19,1.98
			c-0.01,0.01-0.02,0.02-0.04,0.03l-4.57,3.65C22.46,18.21,21.37,18.59,20.25,18.59z"/>
	</g>
	<g id="Groupe_361" transform="translate(473.933 264.252)">
		<path id="Tracé_221" class="st3" d="M-0.06,15.96c-0.78,0-1.41-0.63-1.41-1.41c0-0.43,0.19-0.83,0.53-1.1l8.43-6.71
			C8.43,6,8.59,4.65,7.85,3.71c0,0,0,0,0,0L6.51,2.02C6.03,1.42,6.13,0.53,6.73,0.05s1.49-0.39,1.98,0.22c0,0,0.01,0.01,0.01,0.01
			l1.34,1.69c1.7,2.15,1.34,5.27-0.81,6.97c0,0,0,0,0,0l-8.43,6.71C0.56,15.85,0.26,15.96-0.06,15.96z"/>
	</g>
	<g id="Groupe_362" transform="translate(464.533 256.884)">
		<path id="Tracé_222" class="st1" d="M9.81,5.41L9.81,5.41L8.78,3.95c-1.82-2.12-5-2.37-7.13-0.57l1.72,2.17
			c0.92-0.78,2.3-0.67,3.08,0.25l0.87,1.23C7.35,7.07,7.37,7.11,7.4,7.15c0.01,0.01,0.02,0.02,0.03,0.03l0.05,0.07l0.01,0
			c0.56,0.6,1.5,0.63,2.1,0.07C10.12,6.82,10.21,6.02,9.81,5.41L9.81,5.41z"/>
	</g>
</g>
</svg>
