<svg xmlns:xlink="http://www.w3.org/1999/xlink" xmlns="http://www.w3.org/2000/svg" width="50px" height="40px" viewBox="0 0 50 40"><desc>Created with Lunacy</desc><defs><path d="M0 0L33.9183 0L33.9183 32.9208L0 32.9208L0 0Z" transform="translate(0 0.0792)" id="path_1"></path><path d="M0 0L33.9183 0L33.9183 13.4873L0 13.4873L0 0Z" transform="translate(0 0.1501938)" id="path_2"></path><rect width="50" height="40" id="artboard_1"></rect><clipPath id="clip_1"><use xlink:href="#artboard_1" clip-rule="evenodd"></use></clipPath><clipPath id="mask_1"><use xlink:href="#path_1"></use></clipPath><clipPath id="mask_2"><use xlink:href="#path_2"></use></clipPath></defs><g id="logos/cartes/amex" clip-path="url(#clip_1)"><use xlink:href="#artboard_1" stroke="none" fill="#FFFFFF"></use><path d="M0 0L100 0L100 40L0 40L0 0Z" id="Rectangle" fill="none" stroke="none"></path><g id="Group-9" transform="translate(8 4)"><g id="Group-3"><path d="M0 0L33.9183 0L33.9183 32.9208L0 32.9208L0 0Z" transform="translate(0 0.0792)" id="Clip-2" fill="none" stroke="none"></path><g clip-path="url(#mask_1)"><path d="M33.9184 17.8174L33.9184 0L0 0L0 32.9208L33.9184 32.9208L33.9184 23.3152C33.8422 23.3152 33.9184 17.8174 33.9184 17.8174" transform="translate(-0.000136 0.0792)" id="Fill-1" fill="#006FCF" stroke="none"></path></g></g><g id="Group-6" transform="translate(0 10)"><path d="M0 0L33.9183 0L33.9183 13.4873L0 13.4873L0 0Z" transform="translate(0 0.1501938)" id="Clip-5" fill="none" stroke="none"></path><g clip-path="url(#mask_2)"><path d="M32.3326 5.75925L29.7636 5.75925L29.1598 4.95731L29.1598 5.68575L25.4578 5.68575L25.1559 4.88381L24.5507 4.88381L24.2502 5.68575L21.5302 5.68575C21.3778 5.68575 21.2269 5.68575 21.0773 5.61356C21.0011 5.54006 20.8502 5.54006 20.774 5.46788C20.6978 5.39438 20.5482 5.39438 20.4721 5.32219L20.4721 5.75925L16.7702 5.75925L16.2411 5.03081L16.2411 5.75925L2.94712 5.75925L2.64384 4.95731L2.04 4.95731L1.73672 5.75925L0 5.75925L0 2.478L1.05808 0L3.4748 0L3.92768 1.01981L3.92768 0L6.9496 0L7.32768 0.947625L7.70576 0L20.4721 0L20.4721 0.363562C20.623 0.291375 20.6978 0.291375 20.8502 0.219187C21.0011 0.145688 21.0773 0.0721875 21.2269 0.0721875C21.3778 0.0721875 21.5302 0 21.6811 0L26.1378 0L26.5907 1.01981L26.5907 0L29.0088 0L29.5365 0.801938L29.5365 0L32.3326 0L32.3326 5.75925ZM33.9184 7.6545L33.9184 13.0489C33.5417 13.2681 33.0874 13.3416 32.6346 13.4872L21.3778 13.4872L20.8502 12.7575L20.8502 13.4872L18.1302 13.4872L18.1302 11.9556C17.7521 12.1012 17.2992 12.1747 16.7702 12.1747L16.9211 12.1747L16.9211 13.4137L13.1444 13.4137L12.6154 12.6853L12.0863 13.4137L6.04384 13.4137L6.04384 7.6545L12.0863 7.6545L12.6154 8.38294L13.1444 7.6545L33.9184 7.6545Z" transform="translate(-0.000136 0.1501938)" id="Fill-4" fill="#FFFFFF" fill-rule="evenodd" stroke="none"></path></g></g><path d="M4.61876 4.02552L3.63448 4.02552L3.33184 3.19006L1.36327 3.19006L0.984282 4.02552L0 4.02552L1.7409 0L2.87787 0L4.61876 4.02552ZM6.96632 4.02552L7.79928 4.02552L8.93488 0.760255L8.93488 4.02552L9.84419 4.02552L9.84419 0L8.32959 0L7.42029 2.73473L6.51235 0L4.99775 0L4.99775 4.02552L5.90706 4.02552L5.90706 0.760255L6.96632 4.02552ZM13.8577 0L13.8577 0.760255L11.5864 0.760255L11.5864 1.51914L13.7813 1.51914L13.7813 2.3546L11.5864 2.3546L11.5864 3.19006L13.8577 3.19006L13.8577 4.02552L10.6771 4.02552L10.6771 0L13.8577 0ZM15.5236 2.58295L15.9775 2.58295L17.1895 4.02552L18.3251 4.02552L16.9618 2.50638C17.6435 2.3546 18.0225 1.89927 18.0225 1.29079C18.0225 0.531905 17.4921 0 16.6592 0L14.5393 0L14.5393 4.02552L15.4486 4.02552L15.5236 2.58295ZM22.4149 3.19006L22.0359 4.02552C20.9003 4.02552 20.2187 3.26664 20.2187 2.05105L20.2187 1.97448C20.2187 0.83546 20.9003 0 22.1109 0L23.1715 0L23.1715 0.83546L22.1873 0.83546C21.5056 0.83546 21.128 1.29079 21.128 1.97448L21.128 2.05105C21.128 2.73473 21.5056 3.19006 22.1873 3.19006L22.4149 3.19006ZM26.2757 4.02552L27.2613 4.02552L25.5191 0L24.3085 0L22.5649 4.02552L23.5505 4.02552L23.9281 3.19006L25.8981 3.19006L26.2757 4.02552ZM28.6246 1.59572L30.2142 4.02552L31.3498 4.02552L31.3498 0L30.4419 0L30.4419 2.65816L30.2142 2.2794L28.7746 0L27.5626 0L27.5626 4.02552L28.4719 4.02552L28.4719 1.29079L28.6246 1.59572ZM18.6291 4.02552L19.537 4.02552L19.537 0.0765725L18.6291 0.0765725L18.6291 4.02552ZM2.34755 0.683683L2.04354 1.51914L1.66592 2.42981L3.02919 2.42981L2.6502 1.51914L2.34755 0.683683ZM24.9901 0.683683L24.6861 1.51914L24.3085 2.42981L25.6704 2.42981L25.2914 1.51914L24.9901 0.683683ZM17.1895 1.29079C17.1895 1.06381 17.0382 0.83546 16.6592 0.83546L15.5236 0.760255L15.5236 1.74749L16.6592 1.74749C17.0382 1.74749 17.1895 1.51914 17.1895 1.29079ZM14.9933 11.9248L14.9933 7.89927L17.1895 7.8227C18.0225 7.8227 18.5528 8.43118 18.5528 9.19006C18.5528 10.0269 17.9475 10.5574 17.1132 10.5574L15.9026 10.5574L15.9026 11.9248L14.9933 11.9248ZM10.2232 7.89927L10.2232 8.65953L7.95196 8.65953L7.95196 9.41841L10.1468 9.41841L10.1468 10.2539L7.95196 10.2539L7.95196 11.0893L10.2232 11.0893L10.2232 11.9248L7.04266 11.9248L7.04266 7.89927L10.2232 7.89927ZM13.63 11.9248L14.767 11.9248L13.176 9.87375L14.767 7.89927L13.63 7.89927L12.6457 9.19006L11.6614 7.89927L10.5258 7.89927L12.1154 9.87375L10.5258 11.8496L11.6614 11.8496L12.6457 10.5574L13.63 11.9248ZM20.5213 10.4822L20.066 10.4822L19.9924 11.9248L19.0831 11.9248L19.0831 7.89927L21.203 7.89927C22.0359 7.89927 22.5649 8.43118 22.5649 9.19006C22.5649 9.79854 22.1873 10.2539 21.5056 10.4057L22.8689 11.9248L21.7333 11.9248L20.5213 10.4822ZM26.352 7.89927L26.352 8.65953L24.0808 8.65953L24.0808 9.41841L26.2757 9.41841L26.2757 10.2539L24.0808 10.2539L24.0808 11.0893L26.352 11.0893L26.352 11.9248L23.1715 11.9248L23.1715 7.89927L26.352 7.89927ZM29.0022 11.1659L26.9573 11.1659L26.9573 12L28.9259 12C29.7602 12 30.2892 11.4681 30.2892 10.7092C30.2892 9.95032 29.8352 9.57019 29.0786 9.57019L28.1693 9.57019C27.943 9.57019 27.7903 9.41841 27.7903 9.19006C27.7903 8.96171 27.943 8.8113 28.1693 8.8113L29.9115 8.8113L30.2892 7.97584L28.2443 7.97584C27.4127 7.97584 26.881 8.50638 26.881 9.19006C26.881 9.95032 27.3363 10.3291 28.0943 10.3291L29.0022 10.3291C29.2299 10.3291 29.3799 10.4822 29.3799 10.7092C29.4562 11.0128 29.2299 11.1659 29.0022 11.1659ZM30.6682 11.1659L32.7131 11.1659C33.0157 11.1659 33.167 11.0128 33.0921 10.7092C33.0921 10.4822 32.9407 10.3291 32.7131 10.3291L31.8051 10.3291C31.0472 10.3291 30.5932 9.95032 30.5932 9.19006C30.5932 8.50638 31.1235 7.97584 31.9551 7.97584L34 7.97584L33.6224 8.8113L31.8787 8.8113C31.6524 8.8113 31.5011 8.96171 31.5011 9.19006C31.5011 9.41841 31.6524 9.57019 31.8787 9.57019L32.7881 9.57019C33.546 9.57019 34 9.95032 34 10.7092C34 11.4681 33.4697 12 32.6367 12L30.6682 12L30.6682 11.1659ZM21.203 8.73473C21.582 8.73473 21.7333 8.96171 21.7333 9.19006C21.7333 9.41841 21.582 9.6454 21.203 9.6454L20.066 9.6454L20.066 8.65953L21.203 8.73473ZM17.6435 9.26664C17.6435 9.57019 17.4921 9.79854 17.1132 9.79854L15.9026 9.79854L15.9026 8.73473L17.0382 8.73473C17.4158 8.73473 17.6435 8.96171 17.6435 9.26664Z" transform="translate(0 11)" id="Fill-7" fill="#006FCF" fill-rule="evenodd" stroke="none"></path></g></g></svg>