<svg xmlns:xlink="http://www.w3.org/1999/xlink" xmlns="http://www.w3.org/2000/svg" width="50px" height="40px" viewBox="0 0 50 40"><desc>Created with Lunacy</desc><defs><path d="M0 0L20.922 0L20.922 19.9713L0 19.9713L0 0Z" transform="translate(0.5150514 0.4287)" id="path_1"></path><rect width="50" height="40" id="artboard_1"></rect><clipPath id="clip_1"><use xlink:href="#artboard_1" clip-rule="evenodd"></use></clipPath><clipPath id="mask_1"><use xlink:href="#path_1"></use></clipPath></defs><g id="logos/cartes/Paylib" clip-path="url(#clip_1)"><use xlink:href="#artboard_1" stroke="none" fill="#FFFFFF"></use><g id="Group-10" transform="translate(2 10)"><path d="M6.21802 0.676167L6.20226 0.117936L7.98556 0.132538L8 8L5.84508 8L5.84836 7.57094C5.33359 7.8596 4.65599 7.99663 3.75515 7.99663C2.51157 7.99663 1.61205 7.74447 1.0047 7.22668C0.312 6.63587 -0.00710265 5.69631 0.000119826 4.26873L0.00340277 3.59031C0.0165346 1.04008 1.06642 0 3.62515 0C4.77155 0 5.5982 0.212847 6.21802 0.676167ZM2.65143 6.18491C2.91406 6.40955 3.33297 6.514 3.96723 6.514C5.28894 6.514 5.85492 6.07259 5.85886 5.03868L5.86674 2.98771C5.86871 2.43061 5.74724 2.06725 5.48395 1.84317C5.21147 1.61067 4.74004 1.49835 4.04471 1.49835C2.56541 1.49835 2.15833 1.98413 2.14914 3.75767L2.14651 4.25525C2.14191 5.30207 2.29227 5.87883 2.65143 6.18491Z" transform="translate(8 6)" id="Fill-1" fill="#16D6FF" fill-rule="evenodd" stroke="none"></path><path d="M7 0L5.02928 0L5.02255 5.77443C5.02071 6.38297 4.93751 6.67927 4.71419 6.87234C4.45722 7.09537 4.06809 7.19987 3.48685 7.19987C2.91478 7.19987 2.53483 7.10748 2.29193 6.91121C2.06555 6.72642 1.97378 6.40654 1.975 5.8082L1.9903 0L0 0L0.00917752 6.03122C0.00673018 7.07562 0.322437 7.81415 0.974653 8.28696C1.58282 8.73811 2.32008 8.92226 3.51744 8.92226C4.10602 8.92226 4.60038 8.86937 5.0201 8.76232L5.02928 9.53335C5.02806 10.1565 4.93689 10.2833 4.48414 10.2833L3.58535 10.2833L3.58535 12L4.80902 12C6.35819 12 6.99143 11.3641 6.99449 9.80607L7 0Z" transform="translate(17 5)" id="Fill-3" fill="#16D6FF" stroke="none"></path><path d="M2.94907 7.24409L2.95235 8.96693C2.95235 8.96693 4.19752 8.96882 4.24732 8.96882C6.86151 8.96882 7.98281 7.72976 7.99592 4.82331L7.99985 4.06236C8.00772 2.48756 7.69839 1.45512 7.026 0.811339C6.44667 0.258268 5.60914 0 4.38822 0C3.25316 0 2.39596 0.249449 1.78059 0.759055L1.77534 0.150551L0 0.139213L0.0216265 12L2.17183 12L2.17314 3.38646C2.18166 2.12661 2.65154 1.68 4.02647 1.68C4.6792 1.68 5.10517 1.79717 5.36797 2.04787C5.71662 2.38173 5.86276 3.01984 5.85686 4.1789L5.85424 4.73701C5.84506 6.72756 5.41647 7.23843 3.97666 7.24157L2.94907 7.24409Z" transform="translate(0 5)" id="Fill-5" fill="#16D6FF" stroke="none"></path><g id="Group-9" transform="translate(25 0)"><path d="M0 0L20.922 0L20.922 19.9713L0 19.9713L0 0Z" transform="translate(0.5150514 0.4287)" id="Clip-8" fill="none" stroke="none"></path><g clip-path="url(#mask_1)"><path d="M12.8537 10.5444L12.8537 0.2652C17.4781 1.2984 20.9226 5.2566 20.922 9.9858C20.922 15.501 16.2391 19.9716 10.4626 19.9716C10.1257 19.9716 9.79377 19.9542 9.46566 19.9254L9.46566 8.2038L7.30589 8.2038L7.30589 19.5072C3.07057 18.2298 0 14.4504 0 9.9858C0 7.5396 0.923371 5.2992 2.45331 3.5628L2.45331 11.4264C2.45143 12.2154 2.61926 12.7506 2.98571 13.1076C3.36034 13.4724 3.93423 13.6428 4.7916 13.6428L6.05691 13.6434C6.05691 13.6434 6.05691 13.485 6.05817 13.161L6.06006 12.429L6.06006 11.9328L5.07509 11.9328C4.86263 11.9328 4.72686 11.901 4.65771 11.8344C4.57223 11.7516 4.53703 11.562 4.53766 11.22L4.53766 1.7562C6.22223 0.6492 8.26257 0 10.4626 0C10.5763 0 10.6882 0.0048 10.8014 0.0078L10.8014 10.644C10.7995 11.649 11.0415 12.3738 11.5538 12.8598C12.139 13.4172 13.0479 13.6656 14.498 13.6656C17.2769 13.6656 18.4637 12.4752 18.4674 9.6834L18.4693 9.0342C18.4706 7.5534 18.1645 6.672 17.5057 6.0468C16.9538 5.5236 16.1461 5.2566 15.0398 5.2392L15.0392 5.2404L13.6576 5.2392L13.6576 6.9024L14.8927 6.9024C15.4082 6.9342 15.7382 7.0482 15.9557 7.2642C16.2687 7.575 16.4007 8.0502 16.3988 9.087L16.3982 9.6066C16.3957 11.826 15.796 12.069 14.5238 12.069C13.8179 12.069 13.4307 11.9712 13.1887 11.7402C12.9561 11.5194 12.8524 11.139 12.8537 10.5444ZM8.45554 7.5048C9.18783 7.5048 9.60834 7.1172 9.61149 6.4398L9.61086 6.4398L9.61086 6.3306C9.61149 5.994 9.50966 5.7258 9.30789 5.5344C9.10234 5.34 8.79937 5.2368 8.43103 5.2368L8.34491 5.2368C7.61263 5.2368 7.17389 5.6346 7.17263 6.3018L7.172 6.411C7.17074 6.7398 7.27383 7.0032 7.47811 7.197C7.68994 7.3986 7.99794 7.5048 8.3688 7.5048L8.45554 7.5048Z" transform="translate(0.5150514 0.4287)" id="Fill-7" fill="#16D6FF" fill-rule="evenodd" stroke="none"></path></g></g></g></g></svg>