<svg xmlns:xlink="http://www.w3.org/1999/xlink" xmlns="http://www.w3.org/2000/svg" width="50px" height="40px" viewBox="0 0 50 40"><desc>Created with Lunacy</desc><defs><path d="M0 0L9.83167 0L9.83167 13.9825L0 13.9825L0 0Z" transform="translate(0.1504167 0.01745882)" id="path_1"></path><path d="M0 0L12.5759 0L12.5759 7.11084L0 7.11084L0 0Z" transform="translate(0.04411875 0.1848889)" id="path_2"></path><rect width="50" height="40" id="artboard_1"></rect><clipPath id="clip_1"><use xlink:href="#artboard_1" clip-rule="evenodd"></use></clipPath><clipPath id="mask_1"><use xlink:href="#path_1"></use></clipPath><clipPath id="mask_2"><use xlink:href="#path_2"></use></clipPath></defs><g id="logos/cartes/gpay" clip-path="url(#clip_1)"><use xlink:href="#artboard_1" stroke="none" fill="#FFFFFF"></use><g id="Group-17" transform="translate(0 10)"><path d="M1.76853 14L1.76853 8.32878L4.69291 8.32878C5.89589 8.32878 6.90956 7.93206 7.72912 7.13617C8.57744 6.34191 9 5.35091 9 4.16399C9 3.0047 8.57744 2.02021 7.72912 1.21294C6.89518 0.404855 5.88471 0 4.69291 0L0 0L0 14L1.76853 14ZM1.76853 6.60856L1.76853 1.72023L4.73045 1.72023C5.43579 1.72023 6.0189 1.96818 6.48061 2.46327C6.95509 2.94536 7.19233 3.51362 7.19233 4.16399C7.19233 4.82899 6.95509 5.40375 6.48061 5.88502C6.0189 6.36711 5.43579 6.60856 4.73045 6.60856L1.76853 6.60856Z" transform="translate(22 2)" id="Fill-1" fill="#5F6368" fill-rule="evenodd" stroke="none"></path><path d="M7.77778 1.14881C6.96124 0.38206 5.84927 0 4.43842 0C2.62618 0 1.25926 0.673863 0.330749 2.02334L2.01206 3.09854C2.63394 2.18458 3.47545 1.72803 4.54091 1.72803C5.2472 1.72803 5.86047 1.962 6.38674 2.43344C6.91214 2.90401 7.17399 3.47622 7.17399 4.15008L7.17399 4.59348C6.44272 4.17287 5.50818 3.96168 4.37468 3.96168C3.04823 3.96168 1.98708 4.27802 1.19208 4.9107C0.397072 5.5425 0 6.39162 0 7.45893C0 8.47192 0.377261 9.31403 1.13092 9.98877C1.88286 10.6635 2.82171 11 3.94143 11C5.25409 11 6.30491 10.4103 7.09302 9.23078L7.17571 9.23078L7.17571 10.6635L9 10.6635L9 4.29818C9 2.96447 8.59345 1.91468 7.77778 1.14881ZM2.60293 8.76723C2.18002 8.42898 1.96985 8.00836 1.96985 7.50187C1.96985 6.9393 2.22997 6.47136 2.74763 6.09193C3.26529 5.7125 3.91214 5.52235 4.68648 5.52235C5.74935 5.52235 6.57967 5.76069 7.17399 6.23915C7.17399 7.05321 6.8596 7.76125 6.23084 8.36589C5.60121 8.96965 4.88803 9.27284 4.08527 9.27284C3.51766 9.27284 3.02498 9.10372 2.60293 8.76723Z" transform="translate(31 6)" id="Fill-3" fill="#5F6368" fill-rule="evenodd" stroke="none"></path><g id="Group-7" transform="translate(40 7)"><path d="M0 0L9.83167 0L9.83167 13.9825L0 13.9825L0 0Z" transform="translate(0.1504167 0.01745882)" id="Clip-6" fill="none" stroke="none"></path><g clip-path="url(#mask_1)"><path d="M9.83167 0L3.67083 13.9827L1.76583 13.9827L4.05333 9.09094L0 0L2.0075 0L4.93583 6.972L4.97583 6.972L7.82417 0L9.83167 0Z" transform="translate(0.1504167 0.01745882)" id="Fill-5" fill="#5F6368" stroke="none"></path></g></g><path d="M8 1.73224C8 1.13216 7.95038 0.553594 7.85702 0L0 0L0 3.28024L4.49958 3.28024C4.30698 4.35041 3.7233 5.26044 2.836 5.86913L2.836 8L5.52145 8C7.0942 6.51743 8 4.32458 8 1.73224" transform="translate(8 8)" id="Fill-8" fill="#4285F4" stroke="none"></path><path d="M7.46387 7C9.71796 7 11.6162 6.23272 13 4.90901L10.3074 2.74366C9.55773 3.26684 8.59302 3.57305 7.46387 3.57305C5.28568 3.57305 3.43636 2.05074 2.77439 0L0 0L0 2.22922C1.37539 5.05774 4.20038 7 7.46387 7" transform="translate(1 11)" id="Fill-10" fill="#34A853" stroke="none"></path><path d="M4 4.99201C3.81492 4.52093 3.71363 4.01913 3.71363 3.5C3.71363 2.98166 3.81492 2.47986 4 2.00799L4 0L0.970534 0C0.350829 1.05244 0 2.24117 0 3.5C0 4.75883 0.350829 5.94835 0.970534 7L4 4.99201Z" transform="translate(0 6)" id="Fill-12" fill="#FABB05" stroke="none"></path><g id="Group-16" transform="translate(1 0)"><path d="M0 0L12.5759 0L12.5759 7.11084L0 7.11084L0 0Z" transform="translate(0.04411875 0.1848889)" id="Clip-15" fill="none" stroke="none"></path><g clip-path="url(#mask_2)"><path d="M7.19144 3.48178C8.37688 3.48178 9.44044 3.92711 10.2789 4.80089L10.2789 4.80178L12.5759 2.29156C11.1808 0.872 9.36244 0 7.19144 0C4.04706 0 1.32519 1.97244 0 4.84622L2.67313 7.11111C3.31094 5.02756 5.09275 3.48178 7.19144 3.48178" transform="translate(0.04411875 0.1846222)" id="Fill-14" fill="#E94235" stroke="none"></path></g></g></g></g></svg>