<?xml version="1.0" encoding="utf-8"?>
<svg version="1.0" id="Calque_1" xmlns="http://www.w3.org/2000/svg" xmlns:xlink="http://www.w3.org/1999/xlink" x="0px" y="0px" width="50px" height="40px"
	 viewBox="0 0 50 40" enable-background="new 0 0 50 40" xml:space="preserve"  >
<desc>Created with Lunacy</desc>
<g>
	<defs>
		<rect id="SVGID_1_" width="50" height="40"/>
	</defs>
	<clipPath id="SVGID_2_">
		<use xlink:href="#SVGID_1_"  overflow="visible"/>
	</clipPath>
	<g id="logos_x2F_cartes_x2F_samsungPay" clip-path="url(#SVGID_2_)">
		<g>
			<rect id="artboard_1" fill="#FFFFFF" width="50" height="40"/>
		</g>
		<g id="Group-23" transform="translate(4 10)">
			<path id="XMLID_49_" fill="#00A0E9" d="M8.5,3.5h-8.8c-1.1,0-2.1,0.9-2.1,2.1v8.8c0,1.2,0.9,2.1,2.1,2.1h8.8
				c1.2,0,2.1-0.9,2.1-2.1v-0.1c0,0-3.4-1.4-5.1-2.2c-1.1,1.4-2.6,2.2-4.1,2.2c-2.6,0-3.5-2.3-2.2-3.7c0.3-0.3,0.7-0.6,1.4-0.8
				c1.1-0.3,2.9,0.2,4.5,0.7c0.3-0.5,0.5-1.1,0.7-1.8H0.7V8.2h2.6V7.2H0.2V6.7h3.2V5.4c0,0,0-0.2,0.2-0.2h1.3v1.5H8v0.5H4.9v0.9h2.5
				c-0.2,1-0.6,1.9-1.1,2.7c0.8,0.3,1.5,0.5,2,0.7c1.9,0.6,2.3,0.7,2.3,0.7V5.6C10.6,4.4,9.7,3.5,8.5,3.5z"/>
			<path id="XMLID_48_" fill="#00A0E9" d="M-0.4,10.9c-1,0.8-0.4,2.4,1.6,2.4c1.2,0,2.4-0.7,3.3-1.9c-1.3-0.6-2.4-1.1-3.6-0.9
				C0.6,10.5-0.1,10.6-0.4,10.9z"/>
			<path d="M16,8.2l1.5,3.2h-3L16,8.2z M18.3,13.1h1.8l-3.3-7.3h-0.5c-0.1,0-0.2,0-0.2,0.1S15.9,6,15.9,6.1l-3.4,7h1.2l0.6-1.2h3.4
				L18.3,13.1L18.3,13.1z M22.4,13.1h-1.7v-7c0-0.1,0-0.2,0.1-0.2c0.1-0.1,0.2-0.1,0.2-0.1h1.4L22.4,13.1L22.4,13.1z M23.8,8.2
				c0-0.1,0-0.2,0.1-0.2c0.1-0.1,0.2-0.1,0.2-0.1h1.4v5.4h-1.7L23.8,8.2L23.8,8.2z M28.5,11.8c0,0.1,0,0.3,0.1,0.4
				c0.1,0.1,0.1,0.2,0.2,0.3c0.1,0.1,0.2,0.2,0.3,0.2c0.1,0.1,0.3,0.1,0.4,0.1c0.1,0,0.3-0.1,0.4-0.1c0.1-0.1,0.2-0.2,0.3-0.4
				c0.1-0.2,0.2-0.4,0.2-0.6c0.1-0.2,0.1-0.5,0.1-0.8c0-0.4,0-0.7-0.1-0.9c-0.1-0.3-0.1-0.5-0.2-0.7c-0.1-0.2-0.2-0.3-0.3-0.4
				c-0.1-0.1-0.3-0.1-0.4-0.1c-0.1,0-0.2,0-0.3,0.1S29.1,8.9,29,8.9s-0.2,0.1-0.3,0.2s-0.2,0.2-0.2,0.3L28.5,11.8L28.5,11.8z
				 M26.8,8.1c0-0.1,0-0.2,0.1-0.2C27,7.9,27,7.8,27.1,7.8h1.3v0.4c0.2-0.2,0.4-0.3,0.6-0.4c0.2-0.1,0.5-0.2,0.8-0.2
				c0.3,0,0.7,0.1,0.9,0.2c0.3,0.1,0.5,0.3,0.7,0.5C31.8,8.7,31.9,9,32,9.3c0.1,0.3,0.2,0.6,0.2,1c0,0.4-0.1,0.8-0.2,1.2
				c-0.1,0.4-0.3,0.7-0.6,1c-0.2,0.3-0.5,0.5-0.9,0.6c-0.3,0.2-0.7,0.2-1.1,0.2c-0.2,0-0.4,0-0.6,0c-0.2,0-0.3-0.1-0.5-0.1v2.2h-1.6
				V8.1z M34.2,11.5c0-0.6,0.5-1.1,1.1-1.2c0.4,0,0.6,0.1,0.8,0.1v1.9c-0.2,0.2-0.5,0.3-0.8,0.3C34.7,12.6,34.2,12.1,34.2,11.5
				 M36.5,7.9c-0.8-0.2-1.8-0.3-3.1,0.1c0.1,0.1,0.1,0.4,0.2,0.5c2.1-0.4,2.5-0.1,2.5,0.8v0.3c-0.4,0-0.9-0.1-1.2-0.1
				c-1.5,0-2,1.1-2,1.9c0,1.3,1.2,2.5,3.2,1.6v0.2h1.7V9.3C37.8,8.5,37.1,8.1,36.5,7.9 M38.3,7.7H40l1.7,3.3l1.4-3.1
				c0-0.1,0.1-0.1,0.1-0.2c0.1,0,0.1-0.1,0.2-0.1h0.9l-2.7,6c-0.7,1.6-2.2,1.4-2.5,1.4v-0.9c0.2,0,0.9,0,1.3-0.4
				c0.1-0.1,0.2-0.2,0.2-0.3c0.1-0.1,0.1-0.2,0.1-0.3l0.2-0.4L38.3,7.7z"/>
			<path id="XMLID_35_" fill="#00A0E9" d="M25.5,6.3c0,0.4-0.4,0.8-0.8,0.8s-0.8-0.3-0.8-0.8s0.4-0.8,0.8-0.8S25.5,5.9,25.5,6.3"/>
		</g>
	</g>
</g>
</svg>
