<svg xmlns:xlink="http://www.w3.org/1999/xlink" xmlns="http://www.w3.org/2000/svg" width="50px" height="40px" viewBox="0 0 50 40"><desc>Created with Lunacy</desc><defs><path d="M0 0L48 0L48 29L0 29L0 0Z" id="path_1"></path><rect width="50" height="40" id="artboard_1"></rect><clipPath id="clip_1"><use xlink:href="#artboard_1" clip-rule="evenodd"></use></clipPath><clipPath id="mask_1"><use xlink:href="#path_1"></use></clipPath></defs><g id="logos/cartes/contactless" clip-path="url(#clip_1)"><use xlink:href="#artboard_1" stroke="none" fill="#FFFFFF"></use><path d="M0 0L100 0L100 40L0 40L0 0Z" id="Rectangle" fill="none" stroke="none"></path><g id="Group-3" transform="translate(2 6)"><path d="M0 0L48 0L48 29L0 29L0 0Z" id="Clip-2" fill="none" stroke="none"></path><g clip-path="url(#mask_1)"><path d="M47.945 21.7165L42.4546 12.4234C42.3868 12.327 41.2777 10.8334 39.9127 10.7298C39.9084 10.7298 39.5491 10.7161 38.9909 10.696C36.699 4.54038 28.9845 0 19.8438 0C8.90237 0 0 6.50539 0 14.5007C0 22.4953 8.90237 29 19.8438 29C26.9622 29 33.2148 26.2461 36.7165 22.1225C36.9023 22.1534 37.1063 22.1686 37.3235 22.147C37.3242 22.147 38.2038 22.0584 38.6906 22.0095C39.1199 22.8559 40.1787 24.3481 42.4021 24.623L42.502 23.8334C42.4459 23.8255 42.3941 23.8133 42.3402 23.8046C39.9426 23.4174 39.2459 21.2947 39.2168 21.2026C38.6506 19.2189 37.5596 18.2443 37.5137 18.204C37.5137 18.2033 32.0765 13.1166 32.0765 13.1166C31.8513 12.9078 31.7224 12.6674 31.6947 12.4047C31.691 12.368 31.6881 12.3306 31.6881 12.2946C31.6881 12.0556 31.7705 11.8267 31.9242 11.6389C32.1028 11.4208 32.3578 11.2855 32.6413 11.2567C32.9066 11.2293 33.1682 11.302 33.3795 11.4604C33.4028 11.4762 39.8719 15.6524 39.8719 15.6524L40.092 15.3191L40.3128 14.9851L36.5649 12.5652L36.8637 11.415C38.445 11.4726 39.8668 11.5237 39.8668 11.5237C40.6728 11.5863 41.5218 12.5084 41.7805 12.8575C41.7805 12.8618 46.2944 20.5023 47.1193 21.8994C47.2009 22.0397 47.2483 22.1182 47.2483 22.1182C47.3605 22.3082 47.6083 22.3723 47.7992 22.2607C47.9924 22.1506 48.0572 21.9066 47.945 21.7165ZM37.0706 10.6261C37.548 10.6427 38.0056 10.66 38.4101 10.6744C36.1036 4.82614 28.658 0.531199 19.8438 0.531199C9.19824 0.531199 0.538544 6.79834 0.538544 14.5007C0.538544 22.2024 9.19824 28.4681 19.8438 28.4681C26.6976 28.4681 32.7237 25.8711 36.1502 21.9656L33.3999 20.6253C33.1172 20.3698 32.9532 20.0214 32.9364 19.6443C32.9364 19.6234 32.935 19.6025 32.935 19.5817C32.935 19.2275 33.0684 18.8914 33.3125 18.6272C33.4415 18.4905 33.5938 18.3832 33.7592 18.3055C33.2352 17.8873 32.8024 17.5418 32.7958 17.5353C32.4875 17.256 32.3323 16.8753 32.3323 16.4924C32.3323 16.1505 32.4562 15.8078 32.7076 15.5365C32.7317 15.5106 32.7594 15.4926 32.7841 15.4703C31.4921 15.1521 29.5266 14.6677 29.5237 14.667C28.9466 14.518 28.3118 14.1164 28.5654 13.0439C28.5654 13.0439 29.6418 8.64674 29.6432 8.6381C29.8794 7.76716 30.3742 7.47205 31.2494 7.68223C31.2494 7.68223 36.0978 8.84827 36.1065 8.85043C36.7944 9.03398 37.3927 9.35788 37.1063 10.4865L37.0706 10.6261ZM21.7706 6.95885C23.0889 9.24487 23.8395 11.8836 23.841 14.7044C23.8395 17.526 23.0889 20.1632 21.7706 22.4471C21.5031 22.9142 21.6686 23.5059 22.1379 23.7701C22.6094 24.0342 23.2062 23.8708 23.4759 23.4066C24.9567 20.8406 25.8027 17.8671 25.8027 14.7044C25.8027 11.5417 24.9567 8.56756 23.4759 5.99938C23.2077 5.53512 22.6094 5.37245 22.1379 5.63805C21.6693 5.90365 21.5031 6.49459 21.7706 6.95885ZM18.2201 8.80581C19.244 10.5383 19.8299 12.5494 19.8299 14.7044C19.8299 16.8587 19.244 18.8698 18.2179 20.6023C17.9439 21.0644 18.1043 21.6568 18.5699 21.9274C19.0385 22.1966 19.6397 22.0419 19.9123 21.5805C21.1067 19.5608 21.7903 17.2085 21.7903 14.7044C21.7903 12.201 21.1067 9.84661 19.9123 7.82762C19.6397 7.36624 19.0392 7.21077 18.5714 7.47997C18.1043 7.74917 17.9454 8.34299 18.2201 8.80581ZM35.8529 12.1053C36.0941 11.1796 36.3244 10.29 36.3244 10.29C36.4483 9.80774 36.4148 9.75664 35.9076 9.62204L31.0599 8.45671C30.6161 8.35019 30.5454 8.39337 30.4252 8.83388L29.3496 13.2267C29.2417 13.6852 29.3547 13.8004 29.7241 13.8961L32.4562 14.5684C31.9045 14.053 31.5263 13.6989 31.5263 13.6989C31.1576 13.357 30.939 12.9388 30.8923 12.4875C30.8406 11.998 30.9849 11.5187 31.299 11.1372C31.613 10.7543 32.0612 10.5153 32.5568 10.4656C33.0283 10.4167 33.4925 10.5441 33.8445 10.8097L35.8529 12.1053ZM15.8189 14.7044C15.8175 13.2123 15.3955 11.8275 14.6566 10.6448C14.3738 10.1899 14.5159 9.59397 14.9779 9.31325C15.4392 9.03182 16.0434 9.1729 16.3268 9.6278C17.2487 11.1041 17.7807 12.8467 17.78 14.7044C17.7807 16.5615 17.2487 18.3055 16.3268 19.7789C16.0434 20.2338 15.4392 20.3749 14.9779 20.0949C14.5159 19.8134 14.3738 19.2189 14.6566 18.764C15.3955 17.5814 15.8175 16.1958 15.8189 14.7044ZM11.297 12.4515C11.5331 12.7675 11.7212 13.1187 11.8494 13.4966C11.9784 13.8752 12.0484 14.2797 12.0484 14.7044C12.0484 15.1276 11.9784 15.5329 11.8494 15.9108C11.7212 16.2894 11.5324 16.6421 11.2956 16.9573C10.9727 17.387 11.0638 17.9938 11.4989 18.3127C11.9332 18.6301 12.5468 18.5394 12.8711 18.1119C13.2282 17.6368 13.5132 17.1027 13.7077 16.5291C13.903 15.9554 14.0102 15.34 14.0102 14.7044C14.0102 14.0681 13.903 13.4527 13.7085 12.8798C13.5132 12.3054 13.2282 11.7727 12.8719 11.2955C12.549 10.8687 11.9347 10.7773 11.5004 11.0976C11.0653 11.4157 10.9727 12.0218 11.297 12.4515ZM33.3023 16.0756C33.569 15.7891 33.8197 15.8705 33.9968 16.0101C35.4361 17.3568 36.9693 18.7899 36.9693 18.7899C36.9773 18.7964 37.1471 18.9569 37.3774 19.2578L36.707 19.3261C36.5474 19.342 36.2311 19.2203 36.0664 19.1325C36.0635 19.121 35.3165 18.5279 35.3165 18.5279C35.3151 18.5265 33.3205 16.9314 33.3205 16.9314C33.1981 16.8213 33.1354 16.6615 33.1354 16.4988C33.1354 16.3491 33.1893 16.1958 33.3023 16.0756ZM38.3809 21.2393C38.2286 20.7571 38.0464 20.3475 37.8606 20.0078L36.7879 20.1172C36.7522 20.1208 36.7165 20.1229 36.6815 20.1229C36.245 20.1229 35.7691 19.8775 35.6168 19.7897C35.6168 19.7897 34.8101 19.1469 34.7911 19.1296C34.6672 19.0173 34.5084 18.9598 34.3429 18.967C34.1753 18.9742 34.0201 19.0454 33.9064 19.1663C33.7993 19.2815 33.7417 19.4291 33.7417 19.5831L33.7417 19.6104C33.7483 19.7652 33.8226 19.9056 33.9326 20.0142C34.3298 20.2064 36.3025 21.1594 36.3164 21.1673L36.3186 21.1685C36.3536 21.1861 36.7805 21.401 37.2419 21.3545L38.3809 21.2393Z" id="Fill-1" fill="#1A1919" fill-rule="evenodd" stroke="none"></path></g></g></g></svg>