<?xml version="1.0" encoding="utf-8"?>
<!-- Generator: Adobe Illustrator 24.0.3, SVG Export Plug-In . SVG Version: 6.00 Build 0)  -->
<svg version="1.0" id="Calque_1" xmlns="http://www.w3.org/2000/svg" xmlns:xlink="http://www.w3.org/1999/xlink" x="0px" y="0px" width="50px" height="40px"
	 viewBox="0 0 50 40" enable-background="new 0 0 50 40" xml:space="preserve">
<desc>Created with Lunacy</desc>
<g>
	<defs>
		<rect id="SVGID_1_" width="50" height="40"/>
	</defs>
	<clipPath id="SVGID_2_">
		<use xlink:href="#SVGID_1_"  overflow="visible"/>
	</clipPath>
	<g id="logos_x2F_cartes_x2F_samsungPay" clip-path="url(#SVGID_2_)">
		<g>
			<rect id="artboard_1" fill="#FFFFFF" width="50" height="40"/>
		</g>
		<g id="Group-23" transform="translate(4 10)">
			<g>
				<path id="XMLID_12_" fill="#FFFFFF" d="M21.5-4.9h2.2c0,0,0,0.1,0,0.2C22.9-4.8,22.2-4.9,21.5-4.9z"/>
				<path id="XMLID_11_" fill="#FFFFFF" d="M12.3,6.4c0-0.2,0-0.4,0-0.7c0.1,0,0.2,0.1,0.3,0.1c0.2,0.2,0.5,0.3,0.7,0.5"/>
				<path id="XMLID_10_" fill="#FFFFFF" d="M16.5,13.7c0.1,0,0.3,0,0.4,0c-0.1,0.1-0.2,0.1-0.4,0.2C16.5,13.8,16.5,13.7,16.5,13.7z"
					/>
			</g>
			<g>
				<path id="XMLID_9_" fill="#EEEEEE" d="M10.3,20.9c0,0,0.1-0.1,0.1-0.1c0,0.2-0.1,0.3-0.1,0.5C10.3,21.2,10.2,21.1,10.3,20.9z"/>
				<path id="XMLID_8_" fill="#EEEEEE" d="M14.4,22.5"/>
				<path id="XMLID_7_" fill="#EEEEEE" d="M13.7,22.9"/>
			</g>
			<g>
				<path id="XMLID_6_" fill="#FCFFFD" d="M18.5-4.9h2c-0.6,0-1.3,0.1-1.9,0.1C18.6-4.8,18.5-4.9,18.5-4.9z"/>
			</g>
			<g>
				<path id="XMLID_5_" fill="#00C800" d="M13.7,22.9c-0.1,0.1-0.2,0.1-0.3,0.2c-0.3,0.2-0.7,0.4-1,0.6c-0.1,0.1-0.3,0.2-0.4,0.3
					c-0.2,0.1-0.4,0.2-0.6,0.3c-0.4,0.2-0.7,0.4-1.1,0.6c-0.3,0.1-0.5,0-0.7-0.3c-0.1-0.2,0-0.4,0-0.6c0.1-0.3,0.2-0.7,0.3-1
					c0.1-0.3,0.2-0.7,0.3-1c0.1-0.2,0.1-0.4,0.1-0.6c0-0.2,0.1-0.3,0.1-0.5c0-0.2,0-0.5-0.1-0.7c-0.1-0.1-0.2-0.3-0.3-0.4
					c-0.2-0.2-0.5-0.4-0.7-0.5c-0.2-0.1-0.4-0.3-0.5-0.5c-0.2-0.1-0.3-0.3-0.5-0.4C8,18.2,7.8,18,7.6,17.7c-0.2-0.2-0.3-0.3-0.4-0.5
					c-0.1-0.2-0.3-0.3-0.4-0.5c-0.2-0.3-0.4-0.6-0.6-0.9c0-0.1-0.1-0.1-0.1-0.2c-0.2-0.3-0.4-0.7-0.6-1c-0.1-0.2-0.2-0.5-0.4-0.7
					c0-0.1-0.1-0.2-0.1-0.3c-0.1-0.3-0.3-0.7-0.4-1.1c-0.1-0.3-0.2-0.7-0.3-1c-0.1-0.3-0.1-0.7-0.2-1c-0.1-1-0.1-2.1,0-3.1
					c0.1-0.3,0.1-0.7,0.2-1c0.1-0.3,0.2-0.7,0.3-1c0.1-0.4,0.3-0.7,0.4-1l0,0c0.2-0.3,0.3-0.7,0.5-1C6,2.6,6.5,1.9,7,1.3
					c0.1-0.1,0.1-0.1,0.2-0.2c0.2-0.3,0.5-0.5,0.7-0.8C8,0.2,8.1,0.1,8.2,0C8.5-0.3,8.7-0.5,9-0.7c0.1-0.1,0.2-0.1,0.2-0.2
					c0.6-0.5,1.3-1,2-1.4c0.3-0.2,0.6-0.3,0.8-0.5c0.1,0,0.1-0.1,0.2-0.1c0.3-0.2,0.7-0.3,1-0.5c0.7-0.3,1.4-0.5,2.1-0.7
					c0.4-0.1,0.7-0.2,1.1-0.3c0.3-0.1,0.6-0.1,0.9-0.2c0.4-0.1,0.8-0.1,1.1-0.2c0.6-0.1,1.2-0.1,1.9-0.1h1c0.7,0,1.5,0.1,2.2,0.2
					c0.3,0,0.7,0.1,1,0.2c0.3,0.1,0.7,0.1,1,0.2c0.3,0.1,0.7,0.2,1,0.3c0.7,0.2,1.4,0.5,2.1,0.8c0.3,0.1,0.7,0.3,1,0.5l0,0
					c0.3,0.2,0.7,0.4,1,0.6c0.7,0.4,1.4,0.9,2.1,1.5c0,0,0,0,0.1,0c0.3,0.3,0.6,0.6,0.9,0.9C34,0.2,34,0.2,34.1,0.3
					c0.2,0.2,0.5,0.5,0.7,0.8c-0.1,0.1-0.3,0.1-0.4,0.2c-0.2,0.1-0.3,0.1-0.5,0.2c-0.3,0.1-0.7,0.3-1,0.4C32.6,2,32.3,2.2,32,2.3
					c0,0-0.1,0-0.1,0.1c-0.3,0.2-0.7,0.3-1,0.5c-0.7,0.3-1.4,0.6-2.1,0.9c-0.7,0.3-1.4,0.6-2,0.9c-0.3,0.2-0.7,0.3-1,0.5
					c-0.2,0.1-0.4,0.2-0.6,0.3c-0.1,0.1-0.3,0.1-0.4,0.2c-0.3,0.2-0.7,0.3-1,0.5c-0.3,0.1-0.6,0.3-0.8,0.4c-0.1,0-0.1,0.1-0.2,0.1
					c-0.3,0.2-0.7,0.3-1,0.5c-0.7,0.3-1.4,0.6-2.1,0.9c-0.5,0.2-1.1,0.5-1.6,0.7c-0.2,0.1-0.3,0.1-0.5,0.2c-0.3,0.1-0.7,0-1-0.1
					c-0.1,0-0.2-0.1-0.2-0.1c-0.3-0.2-0.5-0.4-0.8-0.6c-0.2-0.2-0.4-0.3-0.7-0.5c-0.1-0.1-0.3-0.2-0.4-0.3c-0.3-0.2-0.7-0.5-1-0.7
					c0,0,0,0,0,0c-0.2-0.2-0.5-0.3-0.7-0.5c-0.1-0.1-0.2-0.1-0.3-0.1c-0.4,0-0.7,0.3-0.6,0.7c0.3,0.7,0.6,1.4,0.9,2
					c0.2,0.4,0.3,0.7,0.5,1.1c0.1,0.1,0.1,0.3,0.2,0.4c0.1,0.2,0.2,0.4,0.3,0.6c0.2,0.3,0.3,0.7,0.5,1c0.1,0.2,0.2,0.4,0.3,0.7
					c0.1,0.1,0.1,0.3,0.2,0.4c0.2,0.4,0.3,0.8,0.5,1.1c0.1,0.1,0.2,0.2,0.3,0.2c0.3,0.2,0.8,0.1,1.1,0c0.1-0.1,0.2-0.1,0.4-0.2
					c0.2-0.1,0.4-0.2,0.6-0.4c0.7-0.4,1.4-0.8,2.1-1.2c0.3-0.2,0.6-0.3,0.9-0.5c0,0,0.1-0.1,0.1-0.1c0.3-0.2,0.7-0.4,1-0.6
					c0.2-0.1,0.4-0.2,0.6-0.3c0.2-0.1,0.3-0.2,0.5-0.3c0.3-0.2,0.7-0.4,1-0.6c0.1-0.1,0.2-0.1,0.3-0.2c0.2-0.1,0.5-0.3,0.7-0.4
					c0.7-0.4,1.4-0.8,2.1-1.2c0.3-0.2,0.5-0.3,0.8-0.5c0.1,0,0.2-0.1,0.2-0.1c0.3-0.2,0.7-0.4,1-0.6c0.2-0.1,0.4-0.2,0.5-0.3
					c0.2-0.1,0.3-0.2,0.5-0.3c0.7-0.4,1.4-0.8,2.1-1.2c0.3-0.2,0.7-0.4,1-0.6c0,0,0.1,0,0.1,0c0.3-0.2,0.7-0.4,1-0.6
					c0.2-0.1,0.5-0.3,0.7-0.4c0.1-0.1,0.2-0.1,0.3-0.2c0.3-0.2,0.6-0.4,1-0.5c0.1,0.2,0.3,0.5,0.4,0.7c0.2,0.3,0.4,0.7,0.5,1.1
					c0,0.1,0.1,0.2,0.1,0.3c0.1,0.2,0.2,0.5,0.3,0.7c0.1,0.3,0.2,0.7,0.3,1c0.1,0.3,0.1,0.7,0.2,1c0,0.3,0.1,0.7,0.1,1
					c0,0.3,0,0.7,0,1c0,0.3,0,0.7-0.1,1c0,0.3-0.1,0.7-0.2,1c-0.1,0.3-0.2,0.7-0.3,1c-0.2,0.7-0.5,1.4-0.8,2.1
					c-0.4,0.7-0.8,1.4-1.3,2.1c-0.1,0.1-0.2,0.2-0.3,0.3c-0.2,0.2-0.4,0.5-0.6,0.7c-0.1,0.2-0.3,0.3-0.4,0.4
					c-0.2,0.2-0.4,0.4-0.7,0.6c-0.1,0.1-0.2,0.2-0.4,0.3c-0.3,0.2-0.6,0.5-0.9,0.7c0,0-0.1,0.1-0.1,0.1c-0.3,0.2-0.7,0.5-1,0.7
					c-0.1,0.1-0.3,0.2-0.4,0.2c-0.2,0.1-0.4,0.2-0.6,0.3c-0.3,0.2-0.7,0.3-1,0.5c-0.2,0.1-0.3,0.1-0.5,0.2c-0.2,0.1-0.4,0.1-0.6,0.2
					c-0.3,0.1-0.7,0.2-1,0.3c-0.4,0.1-0.7,0.2-1.1,0.3c-0.3,0.1-0.6,0.1-0.9,0.2c0,0-0.1,0-0.1,0c-0.3,0.1-0.7,0.1-1,0.2
					c-0.3,0-0.7,0.1-1,0.1c-0.3,0-0.7,0-1,0.1c-0.3,0-0.7,0-1,0c-0.3,0-0.7,0-1,0c-0.3,0-0.7-0.1-1-0.1c-0.3,0-0.6-0.1-0.9-0.1
					c-0.1,0-0.2,0-0.3-0.1c-0.3-0.1-0.5-0.1-0.8-0.2c-0.3-0.1-0.7-0.2-1-0.3c-0.3-0.1-0.7-0.1-1,0.1"/>
			</g>
			<g>
				<path id="XMLID_4_" fill="#EEEEEF" d="M23.7-4.9h1c0,0.1,0,0.2,0,0.3c-0.3-0.1-0.7-0.1-1-0.2C23.7-4.8,23.7-4.9,23.7-4.9z"/>
			</g>
			<g>
				<path id="XMLID_3_" fill="#EDEFEF" d="M28.9,6.4c0.2,0,0.3,0,0.5,0c-0.2,0.1-0.4,0.2-0.5,0.3C28.8,6.7,28.8,6.5,28.9,6.4z"/>
			</g>
			<g>
				<path id="XMLID_2_" fill="#D9EBD7" d="M23.7,9.6c0.1,0,0.2,0,0.3,0c-0.1,0.1-0.2,0.1-0.3,0.2C23.7,9.7,23.7,9.6,23.7,9.6z"/>
			</g>
			<g>
				<path id="XMLID_33_" fill="#FFFDFF" d="M7.2,17.2c0.1,0.2,0.3,0.3,0.4,0.5c-0.1,0-0.3,0.1-0.4,0C7.1,17.6,7.2,17.4,7.2,17.2z"/>
			</g>
			<g>
				<path id="XMLID_32_" fill="#F8FFFD" d="M11.9,24c0.1-0.1,0.3-0.2,0.4-0.3c0,0.1,0,0.2,0,0.3C12.2,24,12,24,11.9,24z"/>
			</g>
		</g>
	</g>
</g>
</svg>
