<svg xmlns:xlink="http://www.w3.org/1999/xlink" xmlns="http://www.w3.org/2000/svg" width="50px" height="40px" viewBox="0 0 50 40"><desc>Created with Lunacy</desc><defs><rect width="50" height="40" id="artboard_1"></rect><clipPath id="clip_1"><use xlink:href="#artboard_1" clip-rule="evenodd"></use></clipPath></defs><g id="logos/cartes/visa" clip-path="url(#clip_1)"><use xlink:href="#artboard_1" stroke="none" fill="#FFFFFF"></use><path d="M0 0L100 0L100 40L0 40L0 0Z" id="Rectangle" fill="none" stroke="none"></path><g id="Group-6" transform="translate(3 6)"><path d="M0 28L44 28L44 0L0 0L0 28Z" id="Fill-1" fill="#FFFFFF" stroke="none"></path><path d="M0 3L42 3L42 0L0 0L0 3Z" transform="translate(1 24)" id="Fill-2" fill="#F7B600" stroke="none"></path><path d="M0 3L42 3L42 0L0 0L0 3Z" transform="translate(1 1)" id="Fill-3" fill="#1A1F71" stroke="none"></path><path d="M24.2873 7.35961C24.2946 5.67972 22.9061 4.9492 21.7951 4.36468C21.0493 3.97233 20.4286 3.64576 20.439 3.142C20.4474 2.76083 20.8103 2.35465 21.6038 2.25082C21.9975 2.19991 23.083 2.15905 24.3136 2.72711L24.7948 0.470038C24.1337 0.230665 23.2831 0 22.225 0C19.509 0 17.5984 1.44517 17.583 3.51646C17.5658 5.04805 18.948 5.90193 19.9869 6.41194C21.0586 6.93334 21.4177 7.26806 21.4126 7.73385C21.4052 8.4475 20.558 8.76347 19.7696 8.77553C18.4295 8.79631 17.6359 8.42489 17.007 8.13057C16.9872 8.12129 16.9675 8.11208 16.948 8.10296L16.4491 10.4353C17.0922 10.73 18.2769 10.9868 19.5035 11C22.3909 11 24.2788 9.57158 24.2873 7.35961ZM12.9088 0.194267L8.45737 10.833L5.55347 10.833L3.36262 2.3426C3.23 1.82053 3.11431 1.6285 2.71042 1.40788C2.04976 1.04837 0.958902 0.71209 0 0.502862L0.064863 0.194267L4.7399 0.194267C5.33526 0.194267 5.8711 0.591287 6.00729 1.27815L7.16457 7.43508L10.0226 0.194267L12.9088 0.194267ZM14.563 10.833L16.8345 0.194267L14.0873 0.194267L11.8155 10.833L14.563 10.833ZM34 10.833L31.4596 10.833L31.1266 9.24422L27.6024 9.24422L27.0296 10.833L24.1442 10.833L28.2669 0.97424C28.4639 0.501076 28.9088 0.194267 29.4371 0.194267L31.7806 0.194267L34 10.833ZM28.393 7.06396L29.8392 3.06853L30.671 7.06396L28.393 7.06396Z" transform="translate(5 9)" id="Fill-4" fill="#1A1F71" fill-rule="evenodd" stroke="none"></path></g></g></svg>