<svg xmlns:xlink="http://www.w3.org/1999/xlink" xmlns="http://www.w3.org/2000/svg" width="50px" height="40px" viewBox="0 0 50 40"><desc>Created with Lunacy</desc><defs><rect width="50" height="40" id="artboard_1"></rect><clipPath id="clip_1"><use xlink:href="#artboard_1" clip-rule="evenodd"></use></clipPath></defs><g id="logos/cartes/vPAy" clip-path="url(#clip_1)"><use xlink:href="#artboard_1" stroke="none" fill="#FFFFFF"></use><path d="M0 0L100 0L100 40L0 40L0 0Z" id="Rectangle" fill="none" stroke="none"></path><g id="Group-12" transform="translate(11 5)"><path d="M0 31L28 31L28 0L0 0L0 31Z" id="Fill-1" fill="#1C3378" stroke="none"></path><path d="M0 20L26 20L26 0L0 0L0 20Z" transform="translate(1 1)" id="Fill-2" fill="#FFFFFF" stroke="none"></path><g id="Group-11" transform="translate(6 4)"><path d="M15.2579 0L9.99962 12.7285L6.56379 12.7285L3.97567 2.56819C3.81964 1.94381 3.68208 1.71494 3.20596 1.44854C2.42196 1.02192 1.13297 0.618048 0 0.36624L0.0760237 0L5.60114 0C6.30523 0 6.93936 0.474528 7.09946 1.29446L8.46845 8.65987L11.8468 0L15.2579 0" transform="translate(0.04198816 0.030336)" id="Fill-3" fill="#1C3378" stroke="none"></path><path d="M1.56194 0C0.872331 0 0.365349 0.052032 0 0.122784L0 5.96054L1.01188 5.96054L1.01188 3.7295C1.14528 3.75446 1.32175 3.76483 1.51063 3.76483C2.23309 3.76483 2.87138 3.56304 3.27782 3.1343C3.59385 2.81587 3.76009 2.35181 3.76009 1.79194C3.76009 1.23629 3.54462 0.772128 3.21212 0.48288C2.85501 0.166464 2.30902 0 1.56194 0ZM1.51063 2.92406C1.30329 2.92406 1.13704 2.9136 1.01188 2.87827L1.01188 0.878208C1.12066 0.851232 1.32175 0.82416 1.60095 0.82416C2.30902 0.82416 2.74007 1.1759 2.74007 1.8335C2.74007 2.52653 2.27418 2.92406 1.51063 2.92406Z" transform="translate(1.57725 18.01387)" id="Fill-5" fill="#FFFFFF" fill-rule="evenodd" stroke="none"></path><path d="M1.05288 5.91677L1.53524 4.23936L3.31058 4.23936L3.81756 5.91677L4.91361 5.91677L3.0951 0L1.79181 0L0 5.91677L1.05288 5.91677ZM2.6969 1.96666L3.13619 3.42355L1.70149 3.42355L2.13245 1.96666C2.23101 1.61712 2.31517 1.20288 2.39725 0.859488L2.41373 0.859488C2.4978 1.20288 2.58821 1.60666 2.6969 1.96666Z" transform="translate(6.043389 18.05764)" id="Fill-7" fill="#FFFFFF" fill-rule="evenodd" stroke="none"></path><path d="M1.7671 5.91677L1.7671 3.44851L0 0L1.15957 0L1.8328 1.51718C2.02367 1.9584 2.16331 2.28931 2.31517 2.6951L2.32947 2.6951C2.4711 2.31629 2.6312 1.94794 2.81998 1.51718L3.49321 0L4.64672 0L2.78712 3.42355L2.78712 5.91677L1.7671 5.91677Z" transform="translate(11.33876 18.0576)" id="Fill-9" fill="#FFFFFF" stroke="none"></path></g></g></g></svg>