<svg xmlns:xlink="http://www.w3.org/1999/xlink" xmlns="http://www.w3.org/2000/svg" width="50px" height="40px" viewBox="0 0 50 40"><desc>Created with Lunacy</desc><defs><path d="M0 0L12.8601 0L12.8601 15.6632L0 15.6632L0 0Z" transform="translate(2.915679E-05 0.1419718)" id="path_1"></path><path d="M0 0L30.8383 0L30.8383 17.8855L0 17.8855L0 0Z" transform="translate(0.1573478 0.1144756)" id="path_2"></path><rect width="50" height="40" id="artboard_1"></rect><clipPath id="clip_1"><use xlink:href="#artboard_1" clip-rule="evenodd"></use></clipPath><clipPath id="mask_1"><use xlink:href="#path_1"></use></clipPath><clipPath id="mask_2"><use xlink:href="#path_2"></use></clipPath></defs><g id="logos/cartes/applepay" clip-path="url(#clip_1)"><use xlink:href="#artboard_1" stroke="none" fill="#FFFFFF"></use><path d="M0 0L100 0L100 40L0 40L0 0Z" id="Rectangle" fill="none" stroke="none"></path><g id="Group-7" transform="translate(2 10)"><g id="Group-3"><path d="M0 0L12.8601 0L12.8601 15.6632L0 15.6632L0 0Z" transform="translate(2.915679E-05 0.1419718)" id="Clip-2" fill="none" stroke="none"></path><g clip-path="url(#mask_1)"><path d="M9.59005 0C9.70545 0.912225 9.3207 1.82468 8.782 2.50907C8.20498 3.19324 7.32007 3.68744 6.39684 3.57341C6.28121 2.69904 6.74305 1.74873 7.24298 1.17837C7.82022 0.532282 8.782 0.0378592 9.59005 0ZM7.48072 4.25871C8.06565 4.03408 8.79203 3.75514 9.59005 3.80146C10.0902 3.83932 11.5521 3.99144 12.437 5.36023C12.3602 5.39808 10.7058 6.34839 10.7443 8.32518C10.7443 10.6824 12.8218 11.4425 12.8601 11.4806C12.8601 11.5186 12.5525 12.583 11.7829 13.6854C11.1291 14.6738 10.4364 15.586 9.35924 15.6241C8.82342 15.6431 8.46845 15.4927 8.10028 15.3368C7.72814 15.1792 7.34253 15.0159 6.74305 15.0159C5.55024 15.0159 5.16549 15.6241 4.16517 15.6622C3.12654 15.7001 2.31849 14.6359 1.66438 13.6854C0.279311 11.7465 -0.720776 8.21115 0.664066 5.81611C1.35671 4.59966 2.58784 3.87741 3.93436 3.83932C4.97322 3.83932 5.935 4.52372 6.55056 4.52372C6.79062 4.52372 7.10676 4.40232 7.48072 4.25871Z" transform="translate(2.915679E-05 0.1419493)" id="Fill-1" fill="#000000" fill-rule="evenodd" stroke="none"></path></g></g><g id="Group-6" transform="translate(15 2)"><path d="M0 0L30.8383 0L30.8383 17.8855L0 17.8855L0 0Z" transform="translate(0.1573478 0.1144756)" id="Clip-5" fill="none" stroke="none"></path><g clip-path="url(#mask_2)"><path d="M10.2667 4.59176C10.2667 1.88846 8.30549 0 5.4601 0L0 0L0 13.9974L2.26847 13.9974L2.26847 9.22039L5.38306 9.22039C8.26697 9.22039 10.2667 7.33193 10.2667 4.59176ZM2.23018 7.40612L4.84466 7.40612C6.80587 7.40612 7.92096 6.36937 7.92096 4.62885C7.92096 2.85146 6.80587 1.85159 4.84466 1.85159L2.23018 1.85159L2.23018 7.40612ZM14.8039 8.10966C12.266 8.25783 10.8434 9.36856 10.8434 11.1462C10.8434 12.9604 12.3045 14.2196 14.4576 14.2196C15.8421 14.2196 17.1879 13.516 17.8031 12.368L17.8414 12.368L17.8414 14.0345L19.9177 14.0345L19.9177 6.99871C19.9177 4.92498 18.2645 3.62898 15.6883 3.62898C13.0736 3.62898 11.4201 4.99917 11.3047 6.85054L13.3813 6.85054C13.5732 5.96195 14.3423 5.36949 15.6115 5.36949C16.9187 5.36949 17.7261 6.03593 17.7261 7.18376L17.7261 7.96149L14.8039 8.10966ZM21.8404 17.8114L21.8404 16.108C21.9943 16.1451 22.3788 16.1451 22.5327 16.1451C23.5324 16.1451 24.0706 15.7379 24.4168 14.701C24.4168 14.6639 24.609 14.0714 24.609 14.0714L20.7638 3.85112L23.1094 3.85112L25.8011 12.1829L25.8394 12.1829L28.5312 3.85112L30.8384 3.85112L26.8777 14.6268C25.955 17.1079 24.9167 17.8856 22.7248 17.8856C22.5712 17.8485 22.0328 17.8485 21.8404 17.8114ZM17.7261 10.2203L17.7261 9.40566L15.1114 9.55383C13.8041 9.6278 13.0736 10.1834 13.0736 11.072C13.0736 11.9608 13.8424 12.5532 14.9963 12.5532C16.5342 12.5532 17.7261 11.5534 17.7261 10.2203Z" transform="translate(0.1573478 0.1144756)" id="Fill-4" fill="#000000" fill-rule="evenodd" stroke="none"></path></g></g></g></g></svg>