<svg xmlns:xlink="http://www.w3.org/1999/xlink" xmlns="http://www.w3.org/2000/svg" width="50px" height="40px" viewBox="0 0 50 40"><desc>Created with Lunacy</desc><defs><path d="M0 40L48 40L48 0L0 0L0 40Z" id="path_1"></path><rect width="50" height="40" id="artboard_1"></rect><clipPath id="clip_1"><use xlink:href="#artboard_1" clip-rule="evenodd"></use></clipPath><clipPath id="mask_1"><use xlink:href="#path_1"></use></clipPath></defs><g id="logos/cartes/mastercard" clip-path="url(#clip_1)"><use xlink:href="#artboard_1" stroke="none" fill="#FFFFFF"></use><path d="M0 0L100 0L100 40L0 40L0 0Z" id="Rectangle" fill="none" stroke="none"></path><g id="Group-8" transform="translate(1 0)"><path d="M34.5352 0L34.5352 4.80511L33.8759 4.80511L33.8759 4.38814C33.64 4.71991 33.2722 4.90663 32.8877 4.89213C31.9776 4.89213 31.2402 4.08629 31.2402 3.09282C31.2402 2.10025 31.9776 1.29532 32.8877 1.29532C33.2722 1.27901 33.64 1.46664 33.8759 1.7984L33.8759 0L34.5352 0ZM15.2335 1.38144L14.1059 1.38144L14.1059 0.338107L13.4142 0.338107L13.4142 1.38144L12.788 1.38144L12.788 2.064L13.4274 2.064L13.4274 3.64757C13.4274 4.44525 13.7106 4.92114 14.5211 4.92114C14.8242 4.92204 15.1214 4.82959 15.378 4.65464L15.1804 4.01468C14.9961 4.13434 14.7876 4.20051 14.5742 4.20867C14.2445 4.20867 14.1192 3.97843 14.1192 3.63307L14.1192 2.064L15.2394 2.064L15.2335 1.38144ZM21.7671 3.09282C21.7347 4.05276 22.4206 4.85769 23.2983 4.89395C23.3481 4.89485 23.398 4.89485 23.447 4.89213C23.8588 4.91479 24.2641 4.76885 24.5804 4.48151L24.2516 3.8769C24.0149 4.07451 23.7251 4.18329 23.4279 4.18691C22.8707 4.13796 22.4563 3.60497 22.5011 2.99764C22.541 2.4574 22.9329 2.02864 23.4279 1.98604C23.7251 1.98876 24.0149 2.09844 24.2516 2.29424L24.5804 1.69054C24.2641 1.4041 23.8588 1.25816 23.447 1.28082C22.5701 1.22643 21.8177 1.95885 21.7687 2.91697C21.7662 2.97045 21.7654 3.02484 21.7671 3.07922L21.7671 3.09282ZM20.2483 1.7984C20.4193 1.47752 20.7382 1.28354 21.0787 1.29532L21.0654 1.28082C21.2315 1.28082 21.3959 1.31255 21.5528 1.37418L21.3419 2.09391C21.2057 2.03408 21.0604 2.00508 20.9134 2.00689C20.4783 2.00689 20.2541 2.32415 20.2541 2.89249L20.2541 4.81962L19.569 4.81962L19.569 1.38144L20.2483 1.38144L20.2483 1.7984ZM29.7679 1.7984C29.939 1.47752 30.257 1.28354 30.5983 1.29532L30.5842 1.28082C30.7503 1.28082 30.9155 1.31255 31.0725 1.37418L30.8615 2.09391C30.7253 2.03408 30.5792 2.00508 30.4322 2.00689C29.9979 2.00689 29.7737 2.32415 29.7737 2.89249L29.7737 4.81962L29.0886 4.81962L29.0886 1.38144L29.7679 1.38144L29.7679 1.7984ZM4.99564 2.66226L4.99564 4.81962L4.30309 4.83412L4.30309 2.92059C4.30309 2.33774 4.07972 2.01414 3.61138 2.01414C3.56737 2.01233 3.52336 2.01414 3.47934 2.02049C3.07328 2.0785 2.78763 2.48459 2.84077 2.92785L2.84077 4.83412L2.14906 4.83412L2.14906 2.92059C2.14906 2.33774 1.91821 2.01414 1.46315 2.01414C1.41665 2.01142 1.37015 2.01414 1.32365 2.02049C0.920075 2.08122 0.636911 2.4864 0.692547 2.92785L0.692547 4.81962L0 4.81962L0 1.38144L0.685904 1.38144L0.685904 1.80566C0.88852 1.46846 1.23978 1.27447 1.60847 1.29532C2.03197 1.27447 2.43139 1.50925 2.64978 1.90718C2.88894 1.49746 3.31327 1.2636 3.7567 1.29532C3.80652 1.2917 3.85634 1.2926 3.90617 1.29623C4.55304 1.34518 5.04048 1.95613 4.99564 2.66226ZM12.2416 1.65428C11.853 1.40319 11.4071 1.2781 10.9562 1.29532C10.159 1.29532 9.63836 1.71229 9.63836 2.39576C9.63836 2.95685 10.0203 3.30221 10.7253 3.41008L11.055 3.45993C11.4312 3.51795 11.6089 3.62582 11.6089 3.8198C11.6089 4.08629 11.3581 4.23677 10.8906 4.23677C10.5136 4.24946 10.1449 4.12255 9.84264 3.8769L9.51297 4.45975C9.91239 4.76432 10.3907 4.92114 10.8773 4.90573C11.7866 4.90573 12.3139 4.4389 12.3139 3.78444C12.3139 3.12908 11.8987 2.86258 11.2128 2.75471L10.884 2.70486C10.5867 2.66226 10.35 2.59699 10.35 2.36675C10.35 2.13742 10.5742 1.96429 10.9496 1.96429C11.2967 1.96882 11.6371 2.06943 11.9377 2.25888L12.2416 1.65428ZM8.86029 1.38144L8.86029 4.80511L8.17521 4.80511L8.17521 4.38814C7.93855 4.71991 7.57152 4.90664 7.18705 4.89213C6.27694 4.89213 5.53955 4.08629 5.53955 3.09282C5.53955 2.10025 6.27694 1.29532 7.18705 1.29532C7.57152 1.27901 7.93855 1.46664 8.17521 1.7984L8.17521 1.38144L8.86029 1.38144ZM28.1852 1.38144L28.1852 4.80511L27.5001 4.80511L27.5001 4.38814C27.2643 4.71991 26.8964 4.90664 26.5119 4.89213C25.6018 4.89213 24.8644 4.08629 24.8644 3.09282C24.8644 2.10025 25.6018 1.29532 26.5119 1.29532C26.8964 1.27901 27.2643 1.46664 27.5001 1.7984L27.5001 1.38144L28.1852 1.38144ZM15.7401 3.11911C15.7276 2.12563 16.4551 1.30801 17.3652 1.29532L17.3751 1.30257C18.2578 1.30257 18.8707 2.0223 18.8707 3.10098L18.8707 3.38832L16.5315 3.38832C16.5854 3.90138 17.0023 4.27393 17.4739 4.22951C17.8069 4.22408 18.13 4.09808 18.389 3.87056L18.7195 4.4244C18.3508 4.75163 17.885 4.91842 17.4108 4.89213C16.5007 4.90573 15.7534 4.11168 15.7401 3.11911ZM17.3652 1.96429C17.7961 1.95341 18.1532 2.32687 18.1623 2.79822L16.5148 2.79822C16.5398 2.31871 16.9118 1.94797 17.3519 1.96429L17.3652 1.96429ZM25.635 3.09282C25.6666 2.51994 26.1167 2.08303 26.6423 2.11657C27.1671 2.15011 27.5674 2.64231 27.5366 3.2161C27.5067 3.76269 27.0932 4.19144 26.5908 4.19416C26.0685 4.20141 25.64 3.74456 25.6334 3.1744C25.6334 3.14811 25.6334 3.12001 25.635 3.09282ZM7.31659 2.12382C6.79178 2.09028 6.34171 2.52719 6.31015 3.10098L6.30351 3.10098C6.30185 3.12999 6.30102 3.15899 6.30185 3.18981C6.31181 3.75997 6.74362 4.2132 7.26593 4.20141C7.76832 4.19869 8.18186 3.76994 8.21175 3.22335C8.24247 2.64956 7.84223 2.15827 7.31659 2.12382ZM32.0008 3.10098C32.0324 2.52719 32.4825 2.09028 33.0081 2.12382C33.5329 2.15827 33.9332 2.64956 33.9024 3.22335C33.8734 3.76994 33.459 4.19869 32.9566 4.20141C32.4343 4.20867 32.0058 3.75272 31.9992 3.18256C31.9992 3.15537 31.9992 3.12727 32.0008 3.10098ZM35.8032 4.34463C35.7662 4.32949 35.7271 4.32059 35.6878 4.32012L35.6863 4.3201C35.6411 4.31853 35.596 4.3267 35.5532 4.34463C35.515 4.36186 35.4802 4.38633 35.4511 4.41715C35.422 4.44797 35.3988 4.48423 35.3814 4.52502C35.3481 4.61023 35.3481 4.70631 35.3814 4.79061C35.4353 4.91751 35.5508 4.99909 35.6786 5C35.721 5 35.7642 4.99003 35.8032 4.97099C35.8414 4.95377 35.8763 4.9302 35.9053 4.89848C35.9344 4.86766 35.9585 4.8314 35.9751 4.79061C36.0083 4.70631 36.0083 4.60932 35.9751 4.52502C35.9585 4.48423 35.9344 4.44797 35.9053 4.41715C35.8763 4.38633 35.8414 4.36186 35.8032 4.34463ZM35.7741 4.90573C35.7442 4.92114 35.7119 4.92839 35.6786 4.92839C35.646 4.92799 35.6135 4.92065 35.5823 4.90573C35.5532 4.89304 35.5267 4.8731 35.5043 4.84862C35.4179 4.74619 35.4179 4.59119 35.5043 4.48876C35.5267 4.46429 35.5532 4.44434 35.5823 4.43165C35.613 4.41715 35.6463 4.4099 35.6786 4.4099C35.7119 4.40899 35.7442 4.41715 35.7741 4.43165C35.8024 4.44434 35.8281 4.46429 35.8497 4.48876C35.9352 4.59119 35.9352 4.74619 35.8497 4.84862C35.8281 4.8731 35.8024 4.89304 35.7741 4.90573ZM35.6977 4.49964C35.7285 4.49782 35.7592 4.5087 35.7841 4.52864C35.804 4.54768 35.8157 4.57487 35.814 4.60388C35.8148 4.62835 35.8057 4.65192 35.7899 4.66824C35.7716 4.68727 35.7476 4.69906 35.721 4.70178L35.8173 4.81962L35.7409 4.81962L35.6521 4.70178L35.6222 4.70178L35.6222 4.81962L35.5599 4.81962L35.5599 4.50326L35.6977 4.49964ZM35.6255 4.64739L35.6255 4.56037L35.6977 4.58303Q35.7177 4.57623 35.7376 4.58303C35.7426 4.593 35.7426 4.60479 35.7376 4.61476C35.7426 4.62563 35.7426 4.63651 35.7376 4.64739Q35.7177 4.65283 35.6977 4.64739L35.6255 4.64739Z" transform="translate(7 30)" id="Fill-1" fill="#231F20" fill-rule="evenodd" stroke="none"></path><path d="M0 40L48 40L48 0L0 0L0 40Z" id="Clip-4" fill="none" stroke="none"></path><g clip-path="url(#mask_1)"><path d="M0 19L10 19L10 0L0 0L0 19Z" transform="translate(19 7)" id="Fill-3" fill="#FF5F00" stroke="none"></path><path d="M14.5147 12.0019C14.5114 8.3191 16.1646 4.83959 19 2.56556C13.9006 -1.52971 6.51828 -0.624974 2.51061 4.58505C-1.49705 9.79676 -0.611666 17.3405 4.48773 21.4357C8.74613 24.8548 14.7416 24.8548 19 21.4357C16.1663 19.1625 14.5122 15.6839 14.5147 12.0019" transform="translate(5 5)" id="Fill-5" fill="#EB001B" stroke="none"></path><path d="M19 12.0015C19 18.6278 13.7424 24 7.25755 24C4.62546 24 2.06901 23.0954 0 21.434C5.09894 17.3393 5.98425 9.79668 1.97694 4.58572C1.39907 3.83482 0.735701 3.15699 0 2.56651C5.09812 -1.52901 12.4798 -0.626082 16.4879 4.5832C18.1155 6.69732 19 9.30868 19 11.9982L19 12.0015Z" transform="translate(24 5)" id="Fill-6" fill="#F79E1B" stroke="none"></path><path d="M0.237105 0.095L0.237105 0.556L0.168053 0.556L0.168053 0.095L0 0.095L0 0L0.392679 0L0.392679 0.095L0.237105 0.095ZM1 0L1 0.556L0.930116 0.56L0.930116 0.139L0.801997 0.5L0.712146 0.5L0.584027 0.139L0.584027 0.556L0.497504 0.556L0.497504 0L0.603161 0L0.742096 0.397L0.8802 0L1 0Z" transform="translate(42 24)" id="Fill-7" fill="#F79E1B" fill-rule="evenodd" stroke="none"></path></g></g></g></svg>