<svg xmlns:xlink="http://www.w3.org/1999/xlink" xmlns="http://www.w3.org/2000/svg" width="50px" height="40px" viewBox="0 0 50 40"><desc>Created with Lunacy</desc><defs><path d="M0 41L49 41L49 0L0 0L0 41Z" id="path_1"></path><rect width="50" height="40" id="artboard_1"></rect><clipPath id="clip_1"><use xlink:href="#artboard_1" clip-rule="evenodd"></use></clipPath><clipPath id="mask_1"><use xlink:href="#path_1"></use></clipPath></defs><g id="logos/cartes/maestro" clip-path="url(#clip_1)"><use xlink:href="#artboard_1" stroke="none" fill="#FFFFFF"></use><path d="M0 0L100 0L100 40L0 40L0 0Z" id="Rectangle" fill="none" stroke="none"></path><g id="Group-8" transform="translate(0 -1)"><path d="M18.1855 1.48205L19.3383 1.48205L19.3383 0.895446L18.1855 0.895446L18.1855 0L17.4729 0L17.4729 0.895446L16.8132 0.895446L16.8132 1.48205L17.4729 1.48205L17.4729 2.82672C17.4729 3.51259 17.7652 3.91971 18.6003 3.91971C18.9136 3.92071 19.2192 3.84249 19.4839 3.69108L19.2809 3.14158C19.0912 3.24386 18.875 3.30202 18.6544 3.30904C18.3013 3.30904 18.1855 3.12353 18.1855 2.81368L18.1855 1.48205ZM24.2286 0.828262C24.4614 0.827259 24.6919 0.867369 24.9081 0.94458C25.1155 1.01979 25.3031 1.13209 25.4619 1.27248C25.6197 1.41286 25.7443 1.57931 25.8293 1.76382C26.0069 2.1599 26.0069 2.60311 25.8293 2.99919C25.7443 3.1847 25.6197 3.35115 25.4619 3.49053C25.3031 3.63192 25.1155 3.74322 24.9081 3.81743C24.4603 3.97686 23.9638 3.97686 23.5149 3.81743C23.3097 3.74322 23.1221 3.63192 22.9644 3.49053C22.8088 3.35115 22.6842 3.1837 22.6003 2.99919C22.4238 2.60311 22.4238 2.1599 22.6003 1.76382C22.6842 1.58032 22.8088 1.41286 22.9644 1.27248C23.1221 1.13209 23.3097 1.01979 23.5149 0.94458C23.7399 0.86035 23.9793 0.817232 24.222 0.818235L24.2286 0.828262ZM5.14953 1.99244L5.14953 3.84651L4.43799 3.84651L4.43799 2.20603C4.43799 1.70566 4.20743 1.4279 3.72425 1.4279C3.67902 1.42589 3.63379 1.4269 3.58856 1.43191C3.16937 1.48205 2.87482 1.831 2.92998 2.21204L2.92998 3.84651L2.21624 3.84651L2.21624 2.20603C2.21624 1.70566 1.97796 1.4279 1.50912 1.4279C1.45837 1.42489 1.40763 1.4269 1.35688 1.43191C0.943198 1.48606 0.655274 1.83501 0.713741 2.21204L0.713741 3.84651L0 3.84651L0 0.895446L0.707123 0.895446L0.707123 1.26044C0.916722 0.970651 1.27856 0.803194 1.65804 0.821243C2.09489 0.804196 2.50747 1.00675 2.73252 1.34668C2.97962 0.995719 3.41758 0.794169 3.87428 0.821243C3.92613 0.818235 3.97687 0.819237 4.02872 0.822246C4.69393 0.864361 5.19476 1.38879 5.14953 1.99244ZM15.9395 1.64951C15.6295 1.48706 15.2787 1.39982 14.9191 1.39581C14.533 1.39581 14.3013 1.52617 14.3013 1.74176C14.3013 1.95835 14.5462 1.99545 14.8518 2.03255L15.1927 2.07567C15.8987 2.16892 16.3267 2.43966 16.3267 2.95908C16.3267 3.4775 15.7839 3.92372 14.8485 3.92372C14.3476 3.93575 13.8556 3.80138 13.4453 3.53967L13.785 3.0393C14.0961 3.24988 14.4778 3.35817 14.8661 3.34915C15.3482 3.34915 15.6063 3.21879 15.6063 2.99017C15.6063 2.82371 15.4221 2.73046 15.036 2.68132L14.6951 2.63821C13.9682 2.54595 13.5743 2.24914 13.5743 1.76683C13.5743 1.17922 14.1038 0.821243 14.9334 0.821243C15.3978 0.807205 15.8568 0.914498 16.255 1.13109L15.9395 1.64951ZM21.7818 0.821243C21.9528 0.822246 22.1238 0.84932 22.2848 0.901462L22.0675 1.51915C21.9263 1.46901 21.7763 1.44394 21.6263 1.44595C21.164 1.44595 20.9456 1.71769 20.9456 2.20603L20.9456 3.85754L20.2396 3.85754L20.2396 0.908481L20.9379 0.908481L20.9379 1.26646C21.1155 0.990706 21.4442 0.824251 21.795 0.834279L21.7818 0.821243ZM9.1253 2.37248L9.1253 0.898454L8.41156 0.898454L8.41156 1.25743C8.16886 0.971654 7.78938 0.810213 7.39224 0.824251C6.45346 0.824251 5.69228 1.51614 5.69228 2.36947C5.69228 3.2228 6.45346 3.91369 7.39224 3.91369C7.78938 3.92773 8.16886 3.76729 8.41156 3.48151L8.41156 3.83949L9.11868 3.83949L9.1253 2.37248ZM12.9654 2.37248C12.9654 1.44595 12.3333 0.828262 11.4265 0.828262C10.4877 0.840295 9.73755 1.54121 9.75079 2.39354C9.76403 3.24687 10.5351 3.92973 11.4739 3.9167C11.9571 3.93274 12.4304 3.78434 12.8021 3.50357L12.4623 3.02727C12.1943 3.2238 11.8611 3.3321 11.518 3.33611C11.0327 3.37422 10.6013 3.05434 10.5462 2.61314L12.9555 2.61314C12.9654 2.53593 12.9654 2.45872 12.9654 2.37248ZM11.4022 1.39882C10.9532 1.3898 10.5759 1.70566 10.5495 2.11277L12.2252 2.11578C12.2152 1.71167 11.8468 1.3898 11.4022 1.39882ZM23.8248 1.51414C23.9528 1.46701 24.0907 1.44394 24.2286 1.44595L24.222 1.4279C24.3632 1.42991 24.5011 1.45999 24.629 1.51414C24.7559 1.55625 24.8728 1.62243 24.9699 1.70867C25.0637 1.79691 25.1365 1.90119 25.1839 2.01651C25.2876 2.26418 25.2876 2.53693 25.1839 2.7836C25.1365 2.89791 25.0637 3.00421 24.9699 3.09245C24.8728 3.17868 24.7559 3.24386 24.629 3.28698C24.3709 3.37923 24.083 3.37923 23.8248 3.28698C23.7024 3.24286 23.5932 3.17668 23.5016 3.09245C23.4079 3.00421 23.3339 2.89791 23.2865 2.7836C23.1839 2.53693 23.1839 2.26418 23.2865 2.01651C23.3339 1.9022 23.4079 1.79691 23.5016 1.70867C23.5932 1.62444 23.7024 1.55725 23.8248 1.51414ZM7.53676 1.53319C6.99511 1.50511 6.52958 1.88013 6.49869 2.37248L6.49097 2.37248C6.48876 2.39955 6.48876 2.42763 6.48876 2.4547C6.502 2.94304 6.94657 3.32909 7.4838 3.31706C8.00118 3.31505 8.42921 2.94705 8.45899 2.47676C8.49098 1.98542 8.07841 1.56227 7.53676 1.53319ZM26.7978 3.43739C26.757 3.42335 26.7129 3.41633 26.6688 3.41633L26.6522 3.41633C26.6136 3.41834 26.5761 3.42536 26.5397 3.43739C26.5 3.45243 26.4647 3.47449 26.4349 3.49956C26.4051 3.52663 26.3797 3.55872 26.3621 3.59281C26.3279 3.66601 26.3279 3.74824 26.3621 3.82144C26.4184 3.92973 26.5375 3.99992 26.6688 3.99992C26.714 4.00093 26.757 3.9919 26.7978 3.97586C26.8365 3.96082 26.8729 3.93976 26.9037 3.91369C26.9335 3.88762 26.9578 3.85553 26.9743 3.82144C27.0085 3.74824 27.0085 3.66601 26.9743 3.59281C26.9578 3.55872 26.9335 3.52663 26.9037 3.49956C26.8729 3.47449 26.8365 3.45243 26.7978 3.43739ZM26.6688 3.93775C26.703 3.93876 26.7361 3.93274 26.7681 3.91971C26.7967 3.90767 26.8232 3.89163 26.8453 3.87057C26.9435 3.78133 26.9435 3.63693 26.8442 3.54769C26.8221 3.52663 26.7956 3.51159 26.7681 3.49956C26.7361 3.48752 26.703 3.48051 26.6688 3.48151C26.6357 3.48151 26.6015 3.48752 26.5706 3.49956C26.5397 3.51159 26.5121 3.52763 26.489 3.54969C26.4007 3.63693 26.4007 3.7703 26.489 3.85754C26.5364 3.90166 26.6004 3.92672 26.6688 3.92672L26.6688 3.93775ZM26.7769 3.59582C26.7526 3.57777 26.7217 3.56975 26.6886 3.57075L26.5463 3.56173L26.5463 3.84651L26.6114 3.84651L26.6114 3.74423L26.6412 3.74423L26.7328 3.84651L26.8122 3.84651L26.7129 3.74423C26.7394 3.74222 26.7648 3.73219 26.7846 3.71615C26.8012 3.70111 26.81 3.68206 26.8089 3.66C26.81 3.63593 26.799 3.61086 26.7769 3.59582ZM26.6147 3.6971L26.6147 3.6239L26.6886 3.64295C26.703 3.63894 26.7173 3.63894 26.7295 3.64295C26.735 3.64997 26.735 3.661 26.7295 3.67002Q26.7377 3.68356 26.7295 3.6971C26.7173 3.70111 26.703 3.70111 26.6886 3.6971L26.6147 3.6971Z" transform="translate(12 32)" id="Fill-1" fill="#000000" fill-rule="evenodd" stroke="none"></path><path d="M0 41L49 41L49 0L0 0L0 41Z" id="Clip-4" fill="none" stroke="none"></path><g clip-path="url(#mask_1)"><path d="M0 19L11 19L11 0L0 0L0 19Z" transform="translate(19 8)" id="Fill-3" fill="#7673C0" stroke="none"></path><path d="M15.2787 12.5019C15.2754 8.66537 17.0163 5.04071 20 2.6716C14.6322 -1.59323 6.8615 -0.650999 2.64286 4.77697C-1.57577 10.2038 -0.643992 18.0629 4.72376 22.3288C9.20654 25.8904 15.5172 25.8904 20 22.3288C17.0174 19.9609 15.2765 16.3373 15.2787 12.5019" transform="translate(5 5)" id="Fill-5" fill="#EB001B" stroke="none"></path><path d="M0.934 0L0.934 0.432L0.854 0.435L0.854 0.108L0.734 0.389L0.651 0.389L0.531 0.108L0.531 0.432L0.451 0.432L0.451 0L0.565 0L0.694 0.309L0.824 0L0.934 0ZM0.222 0.086L0.222 0.432L0.146 0.444L0.146 0.086L0 0.086L0 0.013L0.368 0.013L0.368 0.086L0.222 0.086Z" transform="translate(43 25)" id="Fill-6" fill="#00A1DF" fill-rule="evenodd" stroke="none"></path><path d="M19.9967 12.5034C19.9944 19.4065 14.4589 25.0011 7.6329 25C4.86459 24.9989 2.17653 24.0589 0 22.33C5.36721 18.0642 6.2989 10.2053 2.08069 4.77862C1.47219 3.99533 0.774546 3.28867 0 2.67331C5.3661 -1.59254 13.1372 -0.652589 17.3565 4.77524C19.0683 6.97748 20 9.69816 20 12.5L19.9967 12.5034Z" transform="translate(24 5)" id="Fill-7" fill="#00A1DF" stroke="none"></path></g></g></g></svg>